<?xml version="1.0" standalone="no"?>
<!DOCTYPE svg PUBLIC "-//W3C//DTD SVG 1.1//EN" "http://www.w3.org/Graphics/SVG/1.1/DTD/svg11.dtd" >
<svg xmlns="http://www.w3.org/2000/svg" xmlns:xlink="http://www.w3.org/1999/xlink" version="1.1">
<metadata>
Created by FontForge 20201107 at Sun Feb 21 08:31:44 2021
 By Jimmy Wärting
</metadata>
<defs>
<font id="BestermindRegular" horiz-adv-x="0" >
  <font-face 
    font-family="Bestermind"
    font-weight="400"
    font-stretch="normal"
    units-per-em="2048"
    panose-1="0 0 0 0 0 0 0 0 0 0"
    ascent="1638"
    descent="-410"
    x-height="848"
    cap-height="2287"
    bbox="-491.167 -1179 2928 2455"
    underline-thickness="102"
    underline-position="-307"
    unicode-range="U+000A-FB06"
  />
<missing-glyph horiz-adv-x="1079" 
d="M102 1434h875v-1434h-875v1434zM160 1393l379 -633l381 633h-760zM514 717l-369 614v-1231zM541 674l-379 -631h758zM565 717l371 -621v1239z" />
    <glyph glyph-name="tt.liga" unicode="tt" horiz-adv-x="972" 
d="M1100 1273q197 26 381 -8q143 -26 155 -68q3 -12 -7 -25q-13 -16 -27.5 -15.5t-63.5 17.5q-63 19 -223 23.5t-280 -9.5l-104 -13l-24 -65q-68 -187 -194 -625t-178 -669q-69 -308 -80.5 -555.5t38.5 -348.5q26 -52 23.5 -71.5t-36.5 -19.5q-28 0 -64 71q-33 69 -41.5 218
t10.5 311q19 158 84.5 447.5t135.5 533.5q77 262 87 303q2 8 -9 -8q-29 -39 -90 -143q-105 -179 -158 -252.5t-99 -100.5q-47 -29 -75 -29.5t-62 26.5q-21 17 -27.5 37.5t-5.5 67.5q5 132 137 562q56 175 49 182q-6 6 -145 -41q-174 -59 -203 -57q-20 3 -20 26
q0 29 60.5 58.5t219.5 76.5l136 40l50 135q44 114 129.5 290t121.5 225q34 44 76 44q29 0 36.5 -8t7.5 -42q0 -53 -33.5 -170.5t-81.5 -232.5q-57 -140 -61 -159q-5 -26 16 -27q9 0 84 13q90 17 114 26.5t24 28.5q0 13 87.5 260.5t125.5 341.5q56 140 106.5 195.5t91.5 21.5
q23 -18 23 -55q0 -59 -57.5 -204.5t-150.5 -321.5q-131 -247 -129 -249q9 -3 120 11zM1177 1860q-15 -24 -15 -39q0 -12 10 1q3 3 5 7q16 26 16 38q0 10 -9 2q-3 -3 -7 -9zM551 1325q-54 -133 -53 -142q2 -5 13 -5q6 0 17 13.5t21 32.5q32 62 98 234.5t60 178.5
q-4 3 -14.5 -12t-26.5 -45t-34.5 -69.5t-39.5 -88t-41 -97.5zM768 1050q44 81 39 92q-4 5 -17 5q-33 0 -114.5 -18.5t-95.5 -29.5q-18 -12 -69 -17q-11 -1 -16.5 -2t-12.5 -2t-11 -5.5t-9 -8t-9 -14t-8.5 -19t-11 -27t-12 -34.5t-15.5 -45q0 -1 -0.5 -1.5t-0.5 -1.5
q-54 -163 -106 -364t-52 -245q0 -31 10.5 -42.5t30 -2.5t47.5 38q50 54 101.5 137t151.5 270q39 73 104 194.5t76 142.5z" />
    <glyph glyph-name="ll.liga" unicode="ll" horiz-adv-x="1071" 
d="M1140 570q10 -2 18 -10.5t10 -19.5q5 -24 -133 -308.5t-204 -386.5q-107 -167 -192 -213.5t-162 19.5q-94 79 -77 355.5t144 713.5q99 343 191.5 575t156.5 301q24 26 46 34.5t35 -2t13 -37.5q0 -60 -37.5 -223.5t-72.5 -252.5q-46 -120 -118.5 -255t-114.5 -178
q-33 -33 -60 -120t-71 -298q-29 -138 -29 -314.5t27 -217.5q50 -77 126 -9q99 90 307 503l37 73q38 76 64 126t46 84t32 48.5t18 12.5zM861 1385q-13 -13 -91 -225t-78 -233q1 -19 24 24q28 52 71 156q53 127 76 238q11 52 -2 40zM553 1186q-108 -225 -162 -225
q-41 0 -26 49q10 32 40 73q76 106 135 262t57 243q-1 52 -52 -52q-90 -183 -209 -551q-33 -100 -60 -194q-155 -530 -215.5 -879t-10.5 -421q17 -24 17.5 -44t-10.5 -28.5t-31 -3.5t-40 26q-62 70 -35 304.5t153 719.5q132 506 266 862.5t222 436.5q24 21 38 24t33 -8
q23 -12 26.5 -32t-2.5 -103q-10 -125 -39 -225t-95 -234z" />
    <glyph glyph-name="lfi.liga" unicode="lfi" horiz-adv-x="1556" 
d="M1237 1187q-17 0 -26 24q-10 26 7.5 42.5t36.5 -0.5q14 -14 7.5 -40t-25.5 -26zM1695 613q18 -15 19.5 -25.5t-10.5 -29t-52 -63.5q-66 -74 -158.5 -141t-151.5 -83q-60 -17 -125.5 5t-89.5 68q-17 33 -20 116t10 176l10 78l-47 -54q-153 -178 -266 -336
q-39 -54 -45.5 -73.5t6.5 -46.5q11 -23 9.5 -65t-17.5 -137q-33 -201 -115 -408.5t-155 -274.5q-37 -34 -91.5 -39t-94.5 23q-80 56 -52 265q13 86 47.5 220t69.5 232q20 55 8 66q-8 7 -25 -21q-20 -30 -67 -59t-79 -29q-85 0 -102 119.5t33 366.5q42 206 150 540.5
t200 543.5q74 166 150.5 241.5t123.5 28.5q89 -89 -166 -691q-209 -487 -317 -528q-20 -7 -32.5 -33.5t-29.5 -93.5q-27 -111 -35.5 -253t11.5 -155q44 -28 180 153q78 103 123 197t128 332q156 442 236.5 644.5t114.5 236.5q28 28 80 25.5t68 -32.5q31 -56 -57.5 -278.5
t-277.5 -564.5q-129 -235 -178 -340.5t-110 -279.5q-216 -620 -159 -774q10 -27 46.5 -24t64.5 34q50 53 122.5 236.5t96.5 317.5q32 174 25 207q-6 28 -41 19q-13 -2 -36 -11q-32 -12 -47 -12t-27 12q-21 21 0 47.5t70 40.5q31 9 56.5 31t57.5 70q67 96 179.5 234
t162.5 185q62 59 94.5 74.5t56.5 -3.5q20 -14 19 -34t-25 -99q-30 -99 -35.5 -201.5t17.5 -130.5q23 -26 77 -25t107 29q24 12 74 53.5t97 87.5q70 72 95 89t41 4zM810 1012q-26 -72 -11 -55q20 24 100 191q152 320 152 398q0 65 -50 -38q-42 -87 -107 -267
q-20 -53 -50 -135.5zM363 959q-71 -220 -71 -232q1 -18 39 39q28 41 67 111q91 163 201.5 455.5t110.5 369.5l-1 50l-32 -38q-112 -134 -314 -755z" />
    <glyph glyph-name="ee.liga" unicode="ee" horiz-adv-x="915" 
d="M1001 496q29 -29 -15 -57q-29 -18 -100 -44q-189 -69 -309 -45q-41 7 -71 2t-86 -28q-85 -34 -187 -37.5t-145 26.5q-84 57 -83.5 143t84.5 163q38 35 60.5 44.5t59.5 6.5t48 -11t14 -36q4 -38 -16 -65t-94 -86l-73 -60l35 -23q22 -16 62 -21t83.5 0.5t83.5 16.5t66 29
t26 38q0 69 68.5 193.5t128.5 163.5q36 23 84 22t85 -25q37 -25 37 -77q0 -33 -21.5 -65.5t-95.5 -111.5l-118 -126h67q62 0 184 47q76 30 100.5 34t37.5 -11zM75 470q132 102 132 123q0 16 -32 9q-34 -7 -60 -35q-24 -27 -34 -54t-6 -43zM532 483l48 34q49 34 119 113
q76 83 60 103q-9 11 -43 11q-26 0 -46 -16.5t-56 -68.5q-63 -94 -70 -131z" />
    <glyph glyph-name="oo.liga" unicode="oo" horiz-adv-x="1028" 
d="M1102 634q10 -25 -14.5 -40.5t-74.5 -15.5h-63v-70q-1 -61 -43 -121t-114 -100q-54 -31 -126 -34t-109 23q-50 34 -27 145.5t102 217.5q33 44 24 53t-66 -12q-35 -13 -174 -49q-47 -10 -92 -28t-63 -33l-40 -35l48 -10q41 -10 77.5 -40.5t36.5 -55.5q0 -34 -29.5 -77.5
t-63.5 -60.5q-93 -48 -154 11q-25 23 -29 44.5t3 94.5q4 44 14 86.5t20 56.5q21 31 113 72.5t202 68.5q105 27 196 65q98 38 126 33q30 -6 31.5 -35.5t-25.5 -68.5q-32 -44 -32 -54q0 -9 169 -9q97 0 135 -4.5t42 -17.5zM235 442q-43 4 -50 -24q-10 -55 20 -68.5t70 29.5
q53 57 -40 63zM771 369q45 33 77 77t32 73q0 53 -122 60q-47 4 -62.5 -4.5t-41.5 -52.5q-30 -50 -44 -103t-1 -72q14 -23 67.5 -15.5t94.5 37.5z" />
    <glyph glyph-name="go.liga" unicode="go" horiz-adv-x="1345" 
d="M1320 784q24 -9 19.5 -32t-34.5 -42q-22 -14 -31.5 -36.5t-15.5 -74.5q-8 -85 -63 -169q-73 -109 -147.5 -145.5t-136.5 7.5q-32 22 -35.5 85.5t22.5 136.5q22 62 11 63q-16 2 -136 -108l-104 -97q-15 -14 -43 -40q-155 -144 -188.5 -214.5t-80.5 -355.5q-3 -19 -5 -29.5
t-5 -27t-5 -31.5q-57 -341 -85 -444t-75 -140q-34 -27 -104.5 -30.5t-116.5 19.5q-108 54 -108 227q0 66 11 107t51 124q56 115 109.5 196t182.5 246l131 169l29 157q31 164 36 182q12 37 -20 34q-40 -4 -121 -60q-106 -73 -172.5 -70t-66.5 80q0 40 70.5 135.5t128.5 134.5
q53 37 112 39t90 -32l29 -33l49 64q21 26 44 44.5t35 18.5q31 0 37 -28t-19 -56q-80 -88 -125 -316q-32 -151 -32 -166q0 -10 164 145q136 131 282.5 245t177.5 114q28 0 37 -23q17 -45 131 6q66 29 86 21zM178 496q73 49 129.5 103t56.5 74q0 42 -49 24q-31 -13 -71 -45
q-43 -35 -93 -96t-50 -77q0 -18 38 -4q19 7 39 21zM280 -199q25 144 18 151q-8 8 -68 -67.5t-129.5 -180.5t-103.5 -171q-17 -33 -28.5 -70.5t-10.5 -58.5q2 -50 -12 -50q-7 0 -11.5 -21t-4.5 -50q0 -71 35.5 -108.5t102.5 -37.5q43 0 58 9t35 49q29 59 62 260
q10 60 30.5 185.5t26.5 160.5zM1072 402q46 49 80 110.5t34 95.5q0 20 -11 26t-47 5q-58 0 -88 -23q-23 -17 -55 -103t-32 -132q0 -39 35 -34q37 5 84 55z" />
    <glyph glyph-name="so.liga" unicode="so" horiz-adv-x="1245" 
d="M1307 721q22 -36 -27 -42q-23 -2 -64 0l-88 5l-11 -72q-10 -72 -35.5 -128t-58.5 -73q-46 -24 -95.5 -19.5t-86.5 20.5t-50 33l-31 38l-79 -88q-82 -92 -187 -207l-108 -117l35 -70q59 -118 51 -181t-93 -139q-96 -86 -200.5 -113.5t-148.5 21.5q-45 50 -9.5 136
t155.5 222q65 60 103 122q-37 87 -50.5 211.5t-1.5 248t39.5 232.5t74 179t100.5 74q68 5 99 -42t17.5 -129t-69.5 -173q-34 -58 -71 -67q-22 -5 -26 16q-3 20 15 53.5t41.5 80t30.5 90.5q11 72 -8 89q-8 7 -19 -3q-44 -41 -80 -138.5t-52.5 -209.5t-10 -230.5t40.5 -195.5
q11 5 207 219q227 246 258 274q28 25 44 20q2 0 6 -2q26 -9 18 -42q-12 -47 -16.5 -66.5t-6 -36.5t2 -22t11.5 -10q27 -18 67 -17.5t62 22.5q29 30 37 113q6 53 1.5 61t-37.5 6q-126 -9 -132 25q-4 19 36 46q46 33 211.5 23t188.5 -47zM391 -151q0 29 -24.5 87.5t-37.5 58.5
q-23 0 -135.5 -149t-112.5 -180q0 -23 26 -28.5t67.5 7.5t82.5 41q134 88 134 163z" />
    <glyph glyph-name="son.liga" unicode="son" horiz-adv-x="2193" 
d="M2325 481q3 -18 2.5 -29t-27 -18.5t-66.5 -11.5t-117 -8q-118 -6 -165.5 -2.5t-91.5 20.5q-56 21 -101 65.5t-57 91.5q-9 38 -19 38q-5 0 -151 -140q-57 -57 -107 -98t-61 -41q-26 0 -66 40q-27 27 -32 45.5t2 74.5q10 75 87 247q32 73 51.5 119.5t16.5 46.5
q-10 0 -126 -60q-129 -62 -177 -78q-42 -13 -47 -22.5t7 -48.5q10 -34 5.5 -58.5t-30.5 -77.5q-40 -82 -97 -148q-33 -39 -54.5 -52t-51.5 -13q-52 0 -67 20q-17 23 -23 69.5t4 90.5q3 14 4.5 26t1.5 19.5t-2 7.5q-12 0 -103 -70t-138 -114q-58 -55 -58 -103q0 -21 -13 -56
t-31 -62q-40 -62 -156 -175t-167 -139q-44 -23 -53.5 -23.5t-26.5 16.5q-40 40 2 117.5t182 224.5q158 166 153 173q-13 9 -88 48q-114 59 -145.5 132t16.5 168q27 52 83 103.5t97 62.5q42 11 79.5 -1t53.5 -41q16 -27 11 -71t-19 -86.5t-38.5 -73t-47.5 -30.5
q-15 0 -22 4.5t-7 16.5t7 31t22 49q59 115 8 124q-17 3 -46 -8q-39 -14 -86 -80t-47 -106q0 -37 27 -63t119 -76l90 -50l42 32q71 58 180 137.5t143 99.5q21 10 36 27.5t17 34.5q3 20 14 29t37 12q68 7 179 46.5t226 98.5q156 80 182 70q42 -16 34.5 -70.5t-68.5 -184.5
q-142 -303 -97 -313q33 -6 163 121q93 91 128 116.5t62 22.5q27 -4 38.5 -17t21.5 -49q16 -58 60.5 -102t95.5 -54q55 -10 223 1q113 7 143 4.5t37 -19.5zM248 104q148 151 125 151q-16 0 -164 -159q-69 -74 -69 -89q13 0 108 97zM937 536q48 75 56.5 123.5t-26.5 56.5
q-21 4 -57.5 -48t-61 -116t-14.5 -89q14 -35 42 -8q21 20 61 81z" />
    <glyph glyph-name="st.liga" unicode="st" horiz-adv-x="1079" 
d="M2053 1213q41 -26 36.5 -45.5t-50.5 -13.5q-70 10 -408 5t-446 -18h-1h-1h-2q-184 -20 -217 -32q-28 -10 -37 -36q-2 -7 -7 -25q-1 -3 -1 -5q-37 -150 -113.5 -504t-106.5 -521q-64 -356 -61.5 -504t72.5 -214q34 -33 41 -46.5t-5 -28.5q-20 -22 -34 -20t-52 32
q-55 43 -79 107.5t-21 194.5t32.5 314t91.5 490q67 329 110 516q13 55 23 105t14.5 79t2.5 31q-1 1 -5.5 -4t-11.5 -15t-15 -24.5t-18 -32.5t-20 -38q-70 -141 -138 -254q-52 -87 -185 -317q-111 -192 -142 -276q-81 -212 -126 -212q-19 0 -28.5 9t-9.5 27.5t9 46.5t28 68
q44 96 43.5 162.5t-44.5 208.5q-88 270 1 416q46 74 123 89.5t117 -40.5q19 -27 23 -79.5t-13 -62.5q-20 -13 -41.5 3.5t-24.5 47.5q-3 28 -21.5 38t-43.5 -0.5t-46 -38.5q-39 -52 -40 -140.5t37 -194.5q45 -130 49 -142q4 -13 36 35l30 51q57 106 115 195q62 98 153.5 267
t84.5 175q-7 7 -88 -24q-67 -25 -88 -22.5t-21 36.5q0 20 61.5 50.5t149.5 52.5q17 5 35.5 19.5t27.5 30.5q186 339 229 437q23 52 37 80t27.5 42t23.5 12.5t24 -14.5q10 -10 13.5 -17.5t-2.5 -31t-17 -51.5t-39 -94q-134 -321 -115 -340q7 -8 183 10q170 21 517 21
q226 2 290.5 -2.5t94.5 -23.5z" />
    <glyph glyph-name=".notdef" horiz-adv-x="1079" 
d="M102 1434h875v-1434h-875v1434zM160 1393l379 -633l381 633h-760zM514 717l-369 614v-1231zM541 674l-379 -631h758zM565 717l371 -621v1239z" />
    <glyph glyph-name="uni0000" 
 />
    <glyph glyph-name="uni0000" 
 />
    <glyph glyph-name="nonmarkingreturn" horiz-adv-x="682" 
 />
    <glyph glyph-name="controlLF" unicode="&#xa;" 
 />
    <glyph glyph-name="controlCR" unicode="&#xd;" 
 />
    <glyph glyph-name="space" unicode=" " horiz-adv-x="540" 
 />
    <glyph glyph-name="exclam" unicode="!" horiz-adv-x="821" 
d="M767 1511q42 0 48 -26t-30 -56t-139.5 -219t-189.5 -382q-121 -266 -174 -479q-12 -47 -41 -60q-24 -10 -35 18q-21 54 70 294t248 546q66 128 101 193t63.5 107.5t43.5 53t35 10.5zM197 -52q12 10 27 9.5t26.5 -10t7.5 -21.5q-7 -19 -31.5 -23.5t-34.5 12.5q-11 17 5 33
z" />
    <glyph glyph-name="quotedbl" unicode="&#x22;" horiz-adv-x="567" 
d="M463 1454q2 -37 -1 -60.5t-10 -35.5t-18.5 -12.5t-28.5 9.5q-20 13 -15 103q4 60 10.5 76t26.5 16t26 -16.5t10 -79.5zM242 1522q27 11 39 -12t16 -92q3 -54 -1 -70t-21 -20q-26 -6 -42 36q-19 47 -15.5 98t24.5 60z" />
    <glyph glyph-name="quotedbl" unicode="&#x201d;" horiz-adv-x="567" 
d="M463 1454q2 -37 -1 -60.5t-10 -35.5t-18.5 -12.5t-28.5 9.5q-20 13 -15 103q4 60 10.5 76t26.5 16t26 -16.5t10 -79.5zM242 1522q27 11 39 -12t16 -92q3 -54 -1 -70t-21 -20q-26 -6 -42 36q-19 47 -15.5 98t24.5 60z" />
    <glyph glyph-name="quotedbl" unicode="&#x201c;" horiz-adv-x="567" 
d="M463 1454q2 -37 -1 -60.5t-10 -35.5t-18.5 -12.5t-28.5 9.5q-20 13 -15 103q4 60 10.5 76t26.5 16t26 -16.5t10 -79.5zM242 1522q27 11 39 -12t16 -92q3 -54 -1 -70t-21 -20q-26 -6 -42 36q-19 47 -15.5 98t24.5 60z" />
    <glyph glyph-name="numbersign" unicode="#" horiz-adv-x="970" 
d="M860 1002q58 13 82 5.5t24 -36.5q0 -32 -49 -40q-113 -23 -145 -40t-53 -67q-45 -104 -41 -120q4 -11 39 -5q31 7 39.5 2.5t8.5 -24.5q0 -33 -83 -96q-60 -44 -78 -74t-52 -139q-29 -92 -55.5 -201.5t-26.5 -138.5q0 -6 -15.5 -6t-32 4.5t-20.5 10.5q-8 12 12.5 124.5
t45.5 191.5l23 73l-46 -27q-58 -35 -76.5 -68t-25.5 -114q-7 -102 -22 -111q-22 -13 -40.5 17.5t-21.5 86.5l-6 77l-104 -64q-103 -62 -120 -53q-18 12 -16 29t24.5 39.5t64.5 46.5q11 7 138 82q30 18 45.5 41.5t29.5 75.5q4 15 22.5 80.5t26.5 91.5q24 82 19 88
q-6 6 -121 -49q-124 -57 -147 -38q-9 7 -9 25q0 25 136 87q47 21 159 73q22 13 55 113q33 98 58 104q27 5 34.5 -22.5t-8.5 -76.5q-19 -57 -13 -61q5 -5 88 27q56 21 76.5 41t51.5 82q36 72 62.5 93.5t49.5 -1.5q11 -10 7.5 -27t-23.5 -52q-35 -63 -35 -67q1 -2 8.5 -2
t23 2.5t32.5 6.5zM593 717q13 34 22.5 64t13 47t0.5 17q-8 0 -77 -27q-50 -20 -64.5 -42.5t-48.5 -128.5q-46 -142 -46 -160q0 -32 104 58q51 45 96 172z" />
    <glyph glyph-name="dollar" unicode="$" horiz-adv-x="1542" 
d="M1530 2239q14 -22 -2 -58.5t-47 -52.5q-38 -18 -140 -208l-99 -189l49 -71q58 -82 60 -164t-51 -194q-56 -116 -80 -116q-46 0 -24 70q9 30 30 75q48 103 48 148q0 37 -24.5 96.5t-40.5 59.5q-13 0 -222 -420t-209 -446q0 -11 22 -38t52 -53q254 -217 331.5 -375.5
t13.5 -330.5q-48 -128 -173.5 -236t-287 -164t-311.5 -41q-67 7 -76 -3.5t18 -63.5q38 -71 153 -98q41 -10 41 -33q0 -22 -39 -32q-11 -3 -24 -4q-53 -4 -117 42q-50 36 -82.5 90.5t-32.5 101.5q0 37 -38 56q-45 20 -113 86t-88 109q-51 112 4 202q37 59 124.5 143t107.5 80
q40 -8 21 -46q-17 -32 -86 -106q-83 -88 -103 -135t1 -100q14 -32 75.5 -92.5t80.5 -60.5q3 0 9.5 15t14 41t14.5 56q34 141 141.5 417t213.5 494l27 54l-54 81q-58 87 -74.5 150t-11.5 186q4 90 14.5 134.5t41.5 109.5q70 140 228 254.5t284 115.5h73l84 159
q94 179 144 250t82 71q38 0 47 -16zM1111 279q-19 41 -188 218t-189 177q-9 0 -31 -46t-123 -279q-154 -352 -206 -566q-27 -115 -27.5 -137.5t24.5 -30.5q45 -11 135.5 -7t155.5 20q188 50 334 194q114 114 142 225.5t-27 231.5zM925 1263q209 418 209 427q-4 11 -31 9
t-74 -18t-91 -39q-101 -53 -163.5 -113.5t-108.5 -148.5q-30 -59 -40.5 -101.5t-14.5 -124.5q-5 -87 0 -122.5t27 -79.5q54 -107 71 -107q6 0 216 418z" />
    <glyph glyph-name="percent" unicode="%" horiz-adv-x="1361" 
d="M175 -628q33 0 46.5 -23.5t-10.5 -39.5q-23 -14 -63.5 -12.5t-74.5 17.5q-60 30 -67 91t36 181t156 353q192 395 488.5 879t517.5 764q60 74 50 99.5t-100 15.5q-138 -16 -216 -95t-81 -176q-6 -145 -48.5 -263t-112.5 -184q-29 -28 -52 -35t-42.5 7t-37.5 49
q-43 84 -3 224.5t144 267.5q37 43 43 61.5t-6 43.5q-29 64 -56 23q-9 -16 -41 -16q-19 0 -26.5 18.5t0 40.5t26.5 33q77 42 143 -23l41 -40q4 5 11.5 14t34.5 32.5t57.5 42.5t80.5 37t104 24q105 12 174.5 -14t65.5 -71q-2 -21 -7.5 -39.5t-18.5 -39t-22 -33t-30.5 -39.5
t-32.5 -42q-272 -348 -615.5 -933t-486.5 -943q-42 -104 -51.5 -157.5t9.5 -76.5t73 -23zM740 1214q31 98 31 163l-2 65l-32 -39q-61 -74 -95 -175t-18 -162l10 -43l37 47q39 48 69 144zM1298 145q0 -63 -33 -156t-82.5 -173t-93.5 -109t-106 -25t-97 39q-27 26 -32.5 50.5
t-3.5 104.5q5 111 -16 138q-19 23 -1 53.5t89 97.5q81 75 133.5 99.5t117.5 17.5t95 -40t30 -97zM1081 -184q73 83 114.5 207t9.5 163q-23 28 -59.5 22.5t-49.5 -38.5q-15 -38 -50 -38q-36 0 -71.5 -73t-44.5 -164q-10 -110 36 -134t115 55z" />
    <glyph glyph-name="ampersand" unicode="&#x26;" horiz-adv-x="1091" 
d="M810 1010q-29 -2 -35.5 5.5t-3.5 42.5q3 32 -4 44t-34 23q-63 23 -157 -12t-196 -120q-114 -96 -189 -193.5t-99 -182.5q-12 -46 -11 -61.5t19 -33.5q29 -29 131 -24t225 42q114 33 190 39t96 -18q37 -43 -53 -66l-49 -9q-89 -12 -179.5 -46t-161.5 -81
q-51 -34 -63 -52.5t-16 -68.5q-5 -80 32.5 -119.5t126.5 -46.5q55 -4 75 0t33 22q14 19 24.5 20t36.5 -12q35 -19 89.5 -5t149.5 67q112 62 138 33.5t-45 -135.5q-61 -93 -89 -73q-10 7 -13 30q-3 28 -12 32q-13 4 -97 -24l-1 -1h-1h-1l-1 -1h-1h-1l-1 -1h-1h-1l-1 -1h-1
l-92 -31l-38 -159q-38 -153 -46 -228q-7 -50 -26 -70t-42 1q-32 32 27 277q39 150 31 166q-11 13 -86 13q-66 0 -111.5 19t-87.5 65q-23 24 -32 52t-13 86q-4 66 2 89.5t34 56.5l42 51h-40q-52 0 -102 26.5t-64 61.5q-31 80 28 207.5t183 253.5q143 143 286.5 209t243.5 35
q34 -10 48 -9.5t21 10.5q19 31 108 244q98 227 112 235q19 11 37 -7q30 -30 -157 -451q-30 -68 -32 -87t16 -58q25 -53 31.5 -111t-7.5 -93.5t-44 -29.5q-20 4 -25 24.5t-9 107.5q-1 20 -10 26.5t-34 4.5z" />
    <glyph glyph-name="quotesingle" unicode="'" horiz-adv-x="487" 
d="M273 1389q0 -93 -47 -93q-16 0 -24 15.5t-12 55.5q-13 92 -9 119t30 27t44 -35.5t18 -88.5z" />
    <glyph glyph-name="quotesingle" unicode="&#x2019;" horiz-adv-x="487" 
d="M273 1389q0 -93 -47 -93q-16 0 -24 15.5t-12 55.5q-13 92 -9 119t30 27t44 -35.5t18 -88.5z" />
    <glyph glyph-name="quotesingle" unicode="&#x2018;" horiz-adv-x="487" 
d="M273 1389q0 -93 -47 -93q-16 0 -24 15.5t-12 55.5q-13 92 -9 119t30 27t44 -35.5t18 -88.5z" />
    <glyph glyph-name="parenleft" unicode="(" horiz-adv-x="839" 
d="M818 1737q25 -54 16 -77q-10 -26 -36 -24t-33 30q-11 44 -42 18q-30 -25 -101 -130q-190 -283 -353.5 -713.5t-184.5 -702.5q-13 -175 43 -256.5t191 -83.5q54 0 74.5 -5t20.5 -18q0 -37 -64.5 -52t-134.5 6q-54 17 -103.5 61t-75.5 100q-74 159 22.5 555.5t318.5 838.5
q238 476 365 502q49 10 77 -49z" />
    <glyph glyph-name="parenright" unicode=")" horiz-adv-x="669" 
d="M633 1632q31 -86 31.5 -266t-31.5 -296q-53 -195 -237.5 -598.5t-281.5 -537.5q-41 -56 -81 -67q-29 -7 -29 23q0 20 56 105q64 96 224.5 427t206.5 465q104 300 100 523t-115 325q-22 21 -29 41t2.5 32.5t33.5 12.5q31 0 76.5 -57.5t73.5 -131.5z" />
    <glyph glyph-name="asterisk" unicode="*" horiz-adv-x="430" 
d="M352 1561q48 -42 55 -55.5t-10 -30.5t-28 -15t-44 29q-51 43 -61 36q-5 -4 -5 -26q0 -12 -7 -27t-17 -22q-16 -14 -25 -12.5t-22 20.5q-6 8 -11.5 14t-10 8.5t-5.5 0.5t-6.5 -10t-15.5 -22t-18 -25q-27 -40 -52.5 -48t-35.5 20q-14 36 92 163l45 52l-89 82
q-115 107 -53 114q5 1 12 1q11 0 36 -14.5t48 -33.5l58 -48v52q0 53 -17 70q-20 19 -11 55t34 40q33 6 52 -27.5t19 -97.5q0 -74 9 -74q12 0 56 39q81 67 101 14q8 -24 -66 -91l-76 -69z" />
    <glyph glyph-name="plus" unicode="+" horiz-adv-x="991" 
d="M737 913q250 51 250 -14q0 -19 -11 -26t-44 -10q-57 -4 -188.5 -29.5t-153.5 -36.5q-19 -10 -53.5 -154.5t-50.5 -279.5q-11 -103 -36 -103q-11 0 -25 14q-19 20 -17 65t30 206q35 201 32 218q-1 10 -14 8q-1 -1 -3 -1q-10 -3 -217 -18q-122 -9 -162.5 -7.5t-54.5 15.5
q-34 34 20 50q44 13 164 21q110 7 202.5 17.5t92.5 16.5q3 44 43.5 234.5t48.5 198.5q13 14 53.5 5t40.5 -28t-22 -41q-17 -21 -47 -174.5t-18 -163.5q9 -9 140 17z" />
    <glyph glyph-name="comma" unicode="," horiz-adv-x="481" 
d="M246 443q24 0 43 -59t12 -113q-14 -115 -56 -167q-32 -40 -55 -2q-9 14 17 110q16 58 18 86.5t-9 55.5q-13 36 -4 62.5t34 26.5z" />
    <glyph glyph-name="hyphen" unicode="-" horiz-adv-x="1140" 
d="M941 766q95 -42 -61 -62l-50 -5q-147 -12 -341 -50q-303 -58 -323 -25q-14 23 4.5 43t55.5 20q56 0 197 30q176 36 329 50.5t189 -1.5z" />
    <glyph glyph-name="period" unicode="." horiz-adv-x="440" 
d="M308 509q16 16 41.5 6.5t18.5 -28.5q-7 -20 -31 -24t-34 12q-5 7 -3.5 17.5t8.5 16.5z" />
    <glyph glyph-name="slash" unicode="/" horiz-adv-x="1259" 
d="M1254 1859q13 -36 -145.5 -304.5t-440.5 -687.5q-159 -235 -302 -470.5t-201 -357.5q-76 -160 -93 -192t-31 -37q-17 -6 -28 6q-15 17 -4 56.5t61 150.5q118 265 560 932q240 362 333.5 511t159.5 274q76 142 108 143q14 -2 23 -24z" />
    <glyph glyph-name="zero" unicode="0" horiz-adv-x="1232" 
d="M421 -34q-91 -86 -162.5 -108.5t-147.5 9.5q-94 41 -105.5 191.5t59.5 425.5q76 295 305.5 789t377.5 681q137 173 263 214t185 -68q25 -47 29.5 -200t-15.5 -283q-40 -251 -171.5 -587.5t-302 -631.5t-315.5 -432zM84 180q-8 -123 1.5 -174t45.5 -70q37 -20 67 -18.5
t79 24.5q95 44 228.5 228.5t281.5 478.5q112 220 165 344t100 276q60 193 79.5 305t20.5 264q1 187 -27.5 241t-109.5 19q-69 -29 -179.5 -153t-167.5 -235l-29 -59l47 9q46 11 75 1q23 -7 41.5 -47t10.5 -63q-10 -24 -31.5 -19.5t-32.5 32.5q-36 92 -163 -79
q-126 -171 -213 -423.5t-101 -488.5q-5 -98 -11 -121t-25 -23t-24 19.5t-10 103.5l-7 123l-25 -82q-74 -232 -86 -413z" />
    <glyph glyph-name="one" unicode="1" horiz-adv-x="950" 
d="M119 -474q-91 25 -110 134t29 323q31 137 142 478t197 562q91 231 412 977q62 146 54 151q-8 8 -231 -223q-189 -194 -237 -218q-32 -15 -39 18q-2 8 75 91.5t186 192.5q160 159 219.5 211t81.5 52q32 0 42 -14.5t-3 -68.5t-48 -139t-106 -246q-300 -677 -495.5 -1238
t-211.5 -794q-7 -101 10.5 -138.5t73.5 -48.5q28 -5 39 -13.5t11 -23.5q0 -26 -6 -26q-4 0 -24 -6q-18 -5 -61 7z" />
    <glyph glyph-name="two" unicode="2" horiz-adv-x="1566" 
d="M176 241q171 114 304 253q253 262 539 642.5t384 583.5q82 173 90.5 320t-59.5 212q-40 38 -105 45.5t-140.5 -14.5t-154 -65.5t-153 -110.5t-131.5 -146q-37 -53 -70.5 -115.5t-33.5 -80.5q0 -5 26 -5q27 0 32.5 -20t-16.5 -40q-38 -35 -74 -18t-36 70q1 112 142.5 283
t305.5 257q153 79 270.5 80t188.5 -77q49 -55 64.5 -112t9.5 -162q-13 -222 -215.5 -547.5t-661.5 -863.5l-78 -94l171 87q218 111 358.5 125t221.5 -68q56 -55 29 -71q-9 -5 -23 -5q-23 0 -53 28q-103 97 -371 -10q-129 -51 -322 -165.5t-328 -219.5q-67 -53 -150.5 -103
t-103.5 -50q-15 0 -25 19q-6 22 -3 33t171 125z" />
    <glyph glyph-name="three" unicode="3" horiz-adv-x="1445" 
d="M178 -327q-58 30 -83 56t-55 87q-47 95 -33.5 235.5t79.5 249.5q90 148 187.5 266t122.5 108q22 -8 19.5 -33t-27.5 -48q-45 -40 -140.5 -175.5t-124.5 -199.5q-40 -89 -46 -198q-4 -103 17.5 -160t85.5 -111q80 -68 244 -31t322 159q178 139 356 396t244 470
q28 91 28.5 195.5t-26.5 163.5q-35 77 -116 119t-179 34q-47 -4 -75 -17.5t-88 -63.5q-85 -71 -210 -138.5t-164 -62.5q-60 7 -35 62q27 61 129 133q53 36 111 63q115 53 168 67q31 8 60 31.5t77 80.5q82 98 122 160t77 151q55 132 52.5 257.5t-62.5 196.5q-81 96 -198 75.5
t-260 -155.5q-94 -88 -166.5 -198t-88.5 -181.5t25 -92.5q29 -8 24 -32.5t-36 -29.5q-40 -6 -62 23.5t-22 88.5q0 39 12 78.5t43 106.5q35 72 71.5 119.5t118.5 129.5q104 105 179 152t160 60q66 10 116 -4t97 -56q115 -103 120.5 -274.5t-98.5 -370.5q-56 -109 -122 -190
q-68 -84 -68 -90q0 -3 74 -12q67 -7 116.5 -30.5t100.5 -72.5q56 -54 75.5 -124t13.5 -197q-5 -129 -44 -236t-143 -284q-210 -354 -447 -544t-468 -190q-62 0 -95.5 6t-64.5 22zM725 1142q13 11 8 10.5t-38 -16.5q-55 -26 -67 -42q-3 -6 4 -5q27 5 80 43q7 5 13 10z" />
    <glyph glyph-name="four" unicode="4" horiz-adv-x="1251" 
d="M512 1049q-181 -64 -309.5 -74.5t-174.5 36.5q-18 18 -22 34t1 51q15 120 251 563q212 398 297.5 541t116.5 148q29 5 29 -26q-1 -30 -30 -71q-97 -136 -343 -612.5t-248 -533.5q-2 -31 5.5 -40.5t38.5 -17.5q46 -13 157.5 10t246.5 73l138 52l30 88q7 22 38 117.5
t48 147.5q84 260 169 463.5t131 252.5q26 27 39.5 28.5t31.5 -20.5q12 -14 11 -20.5t-15 -17.5q-22 -16 -75.5 -125t-106.5 -246q-39 -104 -125.5 -359t-86.5 -268q0 -3 26.5 4.5t72.5 23.5q142 49 279 44q107 -5 113 -43q1 -7 -2 -14q-5 -13 -25 -15.5t-76 2.5
q-143 10 -342 -68q-7 -3 -18 -7q-25 -9 -34.5 -16t-23.5 -32t-29.5 -74.5t-42.5 -139.5q-12 -41 -19 -64q-106 -346 -160.5 -565.5t-74.5 -382.5q-17 -137 1.5 -209t75.5 -94q33 -14 33 -41q0 -34 -37 -29q-40 7 -86 52q-33 32 -44.5 57t-17.5 75q-19 143 67 522
q31 134 72.5 283t145.5 493q27 90 22 98q-7 7 -119 -34z" />
    <glyph glyph-name="five" unicode="5" horiz-adv-x="1591" 
d="M290 1432q-32 61 15 248.5t152 413.5q17 36 29.5 67t18 49t2.5 18q-8 0 -89 -29q-30 -11 -59 -17t-38 -4q-43 17 5 53q56 42 181 71q151 34 421 70.5t380 37.5q83 1 148 -8t99 -25t30 -37q-4 -20 -33 -20.5t-108 17.5q-126 30 -527 -34q-221 -36 -248 -46q-23 -8 -28 -26
q-1 -1 -4 -17q-9 -41 -35 -41q-47 0 -181 -350q-95 -253 -72 -340q8 -36 72.5 -50.5t252.5 -25.5q182 -10 278.5 -38t175.5 -91q226 -183 133 -464q-47 -141 -171.5 -299t-284 -283t-301.5 -173q-89 -29 -197 -33t-163 20q-88 39 -122 139t-6 229.5t111 248.5
q64 92 144 178.5t100 86.5q67 0 -23 -102q-141 -158 -204 -273.5t-70 -226.5q-12 -158 91 -210q48 -25 155.5 -19t191.5 38q180 68 374.5 259.5t286.5 390.5q61 133 37 247.5t-130 193.5q-79 60 -158 80t-272 31q-180 11 -258.5 31.5t-101.5 63.5z" />
    <glyph glyph-name="six" unicode="6" horiz-adv-x="1187" 
d="M35 263q-19 49 -25 95.5t-6 147.5q0 141 15.5 237.5t59.5 234.5q91 287 295.5 627t432.5 586q93 99 156.5 140.5t125.5 41.5q51 0 76.5 -17.5t14.5 -44.5q-5 -12 -18 -14.5t-45 2.5q-56 10 -118 -28t-147 -134q-292 -329 -503.5 -720t-258.5 -687q-19 -117 -11 -268.5
t35 -212.5q54 -120 161 -118t219 125q133 145 222 413.5t58 432.5q-15 75 -38 91q-26 19 -75 8t-98 -47q-83 -61 -100 -29q-4 7 -4 17q0 27 75 76t126 56q115 14 162 -81t21 -292q-33 -248 -150 -474.5t-255 -309.5q-66 -41 -137.5 -51t-123.5 13q-89 40 -142 184z" />
    <glyph glyph-name="seven" unicode="7" horiz-adv-x="1363" 
d="M232 1274q-26 -1 -36 8t-0.5 23t35.5 26q32 16 207 48t288 43l96 9l97 146q102 153 154.5 244.5t116.5 225.5q124 260 93 309q-28 44 -196.5 9.5t-505.5 -152.5q-243 -85 -291 -66q-17 7 -17 27q0 16 9 23t32 9q35 3 322 98q269 89 386 120t191 31q90 0 123.5 -44
t17.5 -143q-10 -63 -126 -294.5t-208 -371.5q-97 -146 -97 -161q0 -12 54 -12q50 0 87.5 -13.5t45.5 -35.5q10 -24 -10.5 -33.5t-58.5 1.5q-39 12 -112 12h-71l-131 -188q-536 -767 -627 -990q-52 -129 16 -127q34 0 72 11q34 10 46.5 -10.5t-12.5 -46.5q-17 -17 -76 -25
t-85 2q-28 11 -42.5 32.5t-14.5 56.5t15 83t47.5 115.5t80 149.5t115.5 189t152 231t192 278l154 219l-52 3q-48 3 -243 -32q-185 -37 -233 -37z" />
    <glyph glyph-name="eight" unicode="8" horiz-adv-x="1486" 
d="M433 1360q-165 71 -183 164.5t108 227.5q63 68 186.5 150.5t274.5 157.5q205 103 333 132t201 -10q34 -17 61 -62t27 -86q2 -33 20 -60q26 -33 19 -78.5t-44 -94.5q-43 -57 -68 -103q-22 -41 -37 -51t-34 6q-11 10 -40 -2.5t-106 -57.5q-218 -126 -288 -166
q-161 -90 -161 -96q0 -4 74 -47q193 -109 219.5 -238t-104.5 -319q-108 -156 -283 -301t-294 -177q-101 -29 -174 -7q-79 24 -107.5 69.5t-28.5 146.5q0 182 82 352q56 117 172 253t223 209l59 41zM934 994q0 67 -66 136.5t-182 126.5l-64 31l-100 -76
q-216 -162 -332.5 -360.5t-116.5 -401.5q0 -122 92.5 -144.5t243.5 62.5q118 67 241.5 187t203.5 242.5t80 196.5zM884 2015q-324 -153 -475 -310q-126 -130 -74 -205q10 -15 26 -26q28 -19 127.5 -63.5t120.5 -45.5q9 0 83 46q86 53 270 155q191 104 274.5 161t104.5 96
q23 48 28 138q4 61 0 84.5t-24 48.5q-43 53 -152 34t-309 -113z" />
    <glyph glyph-name="nine" unicode="9" horiz-adv-x="1363" 
d="M1320 2128q32 -71 38 -227.5t-20 -263.5q-42 -173 -177.5 -411.5t-308.5 -445.5q-172 -204 -373.5 -388.5t-314.5 -240.5q-67 -33 -87.5 -38t-43.5 9q-27 17 -3 42q18 18 55 28q63 17 190 118t292 266q226 226 394.5 461.5t244.5 431.5q54 136 70.5 228.5t10.5 217.5
q-4 84 -12 123.5t-30 84.5q-38 77 -78.5 102.5t-122.5 24.5q-150 -3 -334 -119q-69 -44 -213 -183.5t-206 -223.5q-76 -103 -128 -208.5t-73.5 -196.5t-17 -164.5t41.5 -120t101 -56.5q51 -8 139.5 7t166.5 44q69 25 189.5 106t174.5 137q42 43 72.5 52t40.5 -17
q7 -18 -59.5 -81.5t-162 -132.5t-165.5 -102q-85 -40 -153.5 -58t-159.5 -25q-73 -5 -101.5 -1t-68.5 26q-65 35 -94.5 94.5t-29.5 155.5q1 96 17 162t64 168q139 296 444 565q163 144 342.5 209t285.5 20q45 -19 89.5 -68.5t73.5 -110.5z" />
    <glyph glyph-name="colon" unicode=":" horiz-adv-x="323" 
d="M156 366q26 0 39.5 -33.5t-3.5 -53.5q-13 -15 -23 -19t-19 2.5t-19 24.5q-14 26 -5.5 52.5t30.5 26.5zM127 751q19 -4 28 -19t3 -28t-25 -13q-33 0 -33 32q0 17 6.5 23.5t20.5 4.5z" />
    <glyph glyph-name="semicolon" unicode=";" horiz-adv-x="397" 
d="M227 564q24 0 43.5 -59t12.5 -113q-14 -115 -56 -167q-32 -40 -55 -2q-9 15 16 109q16 58 18 87t-9 56q-13 36 -4 62.5t34 26.5zM237 808q-7 -20 -31 -24t-34 12q-5 7 -3.5 17.5t8.5 16.5q16 16 41.5 6.5t18.5 -28.5z" />
    <glyph glyph-name="less" unicode="&#x3c;" horiz-adv-x="643" 
d="M618 1207q15 -11 18 -16.5t-1 -10.5t-20 -15q-28 -18 -82.5 -71.5t-247.5 -255.5q-206 -216 -200 -240q6 -32 67 -49.5t209 -29.5q212 -16 228 -51q5 -11 -3 -25q-9 -13 -47 -13.5t-226 12.5q-182 11 -254 56.5t-49 135.5q4 16 60 83t132 146q37 39 97.5 102.5
t100.5 106.5t58 62q62 66 96 81.5t64 -8.5z" />
    <glyph glyph-name="equal" unicode="=" horiz-adv-x="1333" 
d="M945 729q133 1 160 -4t31 -29q3 -23 -21.5 -28.5t-157.5 -11.5q-176 -6 -426 -64q-202 -47 -292.5 -54t-102.5 23q-10 24 13 38t72 15q58 0 295 57q155 36 234 46.5t195 11.5zM658 1056q542 109 542 -7q0 -26 -20 -35.5t-43 4.5q-63 40 -421 -33q-242 -48 -349 -57
q-79 -6 -95.5 -2.5t-16.5 25.5q0 26 21.5 38t68.5 12q38 0 313 55z" />
    <glyph glyph-name="greater" unicode="&#x3e;" horiz-adv-x="530" 
d="M491 825q32 -30 34 -78.5t-27 -95.5q-37 -60 -137.5 -163t-197.5 -183t-124 -80q-23 0 -34 18q-5 8 7.5 26.5t36.5 39.5q171 150 235 212t104 116q25 33 42.5 64.5t17.5 41.5q0 24 -158 103q-127 63 -186 107.5t-59 79.5t37 25q27 -8 62 -38q45 -38 180 -102
q134 -63 167 -93z" />
    <glyph glyph-name="question" unicode="?" horiz-adv-x="907" 
d="M350 23q19 -12 11 -37t-31 -25t-31 22q-9 22 11 37.5t40 2.5zM738 1194q16 -50 7 -96q-28 -110 -222 -437q-110 -184 -150 -277q-40 -97 -70 -97q-28 0 -39 16q-9 14 59.5 156.5t138.5 257.5q90 147 144.5 260.5t54.5 154.5q0 37 -7.5 45.5t-41.5 8.5q-79 0 -211.5 -98.5
t-151.5 -170.5q-14 -55 -3 -107.5t39 -65.5q35 -17 35 -43q0 -21 -26.5 -27.5t-58.5 3.5t-46 32q-42 64 -31 159t69 178q32 44 143.5 117.5t177.5 93.5q74 23 123.5 6.5t66.5 -69.5z" />
    <glyph glyph-name="at" unicode="@" horiz-adv-x="1638" 
d="M1415 1442q70 -73 102.5 -166t33.5 -222q0 -138 -27 -232q-24 -80 -94.5 -207.5t-133.5 -203.5q-35 -44 -105 -140q-47 -70 -133 -155.5t-157 -132.5q-102 -69 -230.5 -89t-247.5 13q-185 51 -264 192q-32 55 -39.5 90t-6.5 120q1 257 197.5 550t520.5 521
q200 142 339.5 156.5t244.5 -94.5zM1226 478q165 162 224.5 386.5t-16.5 397.5q-77 176 -193 196t-309 -108q-256 -170 -438.5 -381t-261.5 -428q-36 -100 -38.5 -224t31.5 -180q76 -123 241 -160t321 35q60 27 184 132.5t124 129.5q0 6 -13 9.5t-30 1.5q-71 -4 -106 4.5
t-68 39.5q-75 65 -42 202l13 50l-58 -39q-94 -64 -163.5 -30.5t-53.5 133.5q10 64 35 109t75 88q116 102 231 1l53 -46l34 46q26 38 58.5 46t44.5 -21q3 -10 -10 -38.5t-35 -58.5q-68 -93 -110.5 -186.5t-38.5 -140.5q3 -34 13.5 -49.5t37.5 -29.5q53 -25 115.5 2t148.5 111
zM898 747l-33 33q-34 34 -62 34q-32 0 -71.5 -34.5t-60.5 -80.5q-48 -101 -11 -116q39 -17 137 70q7 5 13 11z" />
    <glyph glyph-name="A" unicode="A" horiz-adv-x="1980" 
d="M1974 1837q3 -317 -81 -676q-19 -81 -21.5 -119t7.5 -66q17 -47 17 -128t-17 -98q-20 -20 -40.5 -7t-20.5 46q-1 35 -6 33q-8 -8 -98 -293q-112 -348 -176 -523q-11 -28 -40.5 -33.5t-39.5 19.5q-8 20 22 104q105 283 214 635q4 13 12 38q49 158 50 197q2 44 -36 54
q-28 7 -143 1q-20 -1 -30 -1q-133 -6 -317.5 -41.5t-319.5 -81.5l-107 -35l-89 -222q-91 -227 -114 -356q-23 -132 -102 -449q-78 -314 -88 -457q-6 -83 -13 -114t-21 -33q-25 -5 -34 6q-12 10 -12 36q0 27 -35 25q-18 0 -25.5 7.5t-5 33.5t13 64.5t34.5 110.5
q47 136 80 318q30 153 87 372q42 152 50 252.5t-14 186.5l-9.5 38t-10 28t-11 20.5t-14.5 11.5t-18 5.5t-25 -1.5t-32 -5.5t-42 -10.5q-98 -26 -163 -27t-116 20q-71 30 -68 95.5t80 119.5q63 44 135 51.5t146 -26t131 -107.5l124 38l124 39l111 212q210 402 436.5 746.5
t339.5 434.5q99 79 183 39q34 -17 60 -48t48.5 -89t35.5 -156t14 -234zM105 799q26 -21 116 -11.5t163 40.5q-21 36 -61.5 53t-81 14t-76 -14t-53.5 -26q-28 -23 -29 -30t22 -26zM661 725q42 103 37 108q-2 2 -79 -20q-35 -10 -52.5 -21t-13.5 -20q15 -38 28 -84
q7 -26 16 -46t13 -20q3 0 10.5 13.5t18.5 38t22 51.5zM1836 1272q27 132 41 248.5t13 272.5q-2 188 -28.5 314t-58.5 167q-27 32 -66.5 15.5t-110.5 -90.5q-77 -79 -201 -257t-250 -390q-94 -158 -198.5 -352.5t-104.5 -210.5q0 -13 35 -4q114 30 190 47q330 80 560 67
l143 -8z" />
    <glyph glyph-name="A" unicode="&#xc5;" horiz-adv-x="1980" 
d="M1974 1837q3 -317 -81 -676q-19 -81 -21.5 -119t7.5 -66q17 -47 17 -128t-17 -98q-20 -20 -40.5 -7t-20.5 46q-1 35 -6 33q-8 -8 -98 -293q-112 -348 -176 -523q-11 -28 -40.5 -33.5t-39.5 19.5q-8 20 22 104q105 283 214 635q4 13 12 38q49 158 50 197q2 44 -36 54
q-28 7 -143 1q-20 -1 -30 -1q-133 -6 -317.5 -41.5t-319.5 -81.5l-107 -35l-89 -222q-91 -227 -114 -356q-23 -132 -102 -449q-78 -314 -88 -457q-6 -83 -13 -114t-21 -33q-25 -5 -34 6q-12 10 -12 36q0 27 -35 25q-18 0 -25.5 7.5t-5 33.5t13 64.5t34.5 110.5
q47 136 80 318q30 153 87 372q42 152 50 252.5t-14 186.5l-9.5 38t-10 28t-11 20.5t-14.5 11.5t-18 5.5t-25 -1.5t-32 -5.5t-42 -10.5q-98 -26 -163 -27t-116 20q-71 30 -68 95.5t80 119.5q63 44 135 51.5t146 -26t131 -107.5l124 38l124 39l111 212q210 402 436.5 746.5
t339.5 434.5q99 79 183 39q34 -17 60 -48t48.5 -89t35.5 -156t14 -234zM105 799q26 -21 116 -11.5t163 40.5q-21 36 -61.5 53t-81 14t-76 -14t-53.5 -26q-28 -23 -29 -30t22 -26zM661 725q42 103 37 108q-2 2 -79 -20q-35 -10 -52.5 -21t-13.5 -20q15 -38 28 -84
q7 -26 16 -46t13 -20q3 0 10.5 13.5t18.5 38t22 51.5zM1836 1272q27 132 41 248.5t13 272.5q-2 188 -28.5 314t-58.5 167q-27 32 -66.5 15.5t-110.5 -90.5q-77 -79 -201 -257t-250 -390q-94 -158 -198.5 -352.5t-104.5 -210.5q0 -13 35 -4q114 30 190 47q330 80 560 67
l143 -8z" />
    <glyph glyph-name="A" unicode="&#xc4;" horiz-adv-x="1980" 
d="M1974 1837q3 -317 -81 -676q-19 -81 -21.5 -119t7.5 -66q17 -47 17 -128t-17 -98q-20 -20 -40.5 -7t-20.5 46q-1 35 -6 33q-8 -8 -98 -293q-112 -348 -176 -523q-11 -28 -40.5 -33.5t-39.5 19.5q-8 20 22 104q105 283 214 635q4 13 12 38q49 158 50 197q2 44 -36 54
q-28 7 -143 1q-20 -1 -30 -1q-133 -6 -317.5 -41.5t-319.5 -81.5l-107 -35l-89 -222q-91 -227 -114 -356q-23 -132 -102 -449q-78 -314 -88 -457q-6 -83 -13 -114t-21 -33q-25 -5 -34 6q-12 10 -12 36q0 27 -35 25q-18 0 -25.5 7.5t-5 33.5t13 64.5t34.5 110.5
q47 136 80 318q30 153 87 372q42 152 50 252.5t-14 186.5l-9.5 38t-10 28t-11 20.5t-14.5 11.5t-18 5.5t-25 -1.5t-32 -5.5t-42 -10.5q-98 -26 -163 -27t-116 20q-71 30 -68 95.5t80 119.5q63 44 135 51.5t146 -26t131 -107.5l124 38l124 39l111 212q210 402 436.5 746.5
t339.5 434.5q99 79 183 39q34 -17 60 -48t48.5 -89t35.5 -156t14 -234zM105 799q26 -21 116 -11.5t163 40.5q-21 36 -61.5 53t-81 14t-76 -14t-53.5 -26q-28 -23 -29 -30t22 -26zM661 725q42 103 37 108q-2 2 -79 -20q-35 -10 -52.5 -21t-13.5 -20q15 -38 28 -84
q7 -26 16 -46t13 -20q3 0 10.5 13.5t18.5 38t22 51.5zM1836 1272q27 132 41 248.5t13 272.5q-2 188 -28.5 314t-58.5 167q-27 32 -66.5 15.5t-110.5 -90.5q-77 -79 -201 -257t-250 -390q-94 -158 -198.5 -352.5t-104.5 -210.5q0 -13 35 -4q114 30 190 47q330 80 560 67
l143 -8z" />
    <glyph glyph-name="A" unicode="&#xc3;" horiz-adv-x="1980" 
d="M1974 1837q3 -317 -81 -676q-19 -81 -21.5 -119t7.5 -66q17 -47 17 -128t-17 -98q-20 -20 -40.5 -7t-20.5 46q-1 35 -6 33q-8 -8 -98 -293q-112 -348 -176 -523q-11 -28 -40.5 -33.5t-39.5 19.5q-8 20 22 104q105 283 214 635q4 13 12 38q49 158 50 197q2 44 -36 54
q-28 7 -143 1q-20 -1 -30 -1q-133 -6 -317.5 -41.5t-319.5 -81.5l-107 -35l-89 -222q-91 -227 -114 -356q-23 -132 -102 -449q-78 -314 -88 -457q-6 -83 -13 -114t-21 -33q-25 -5 -34 6q-12 10 -12 36q0 27 -35 25q-18 0 -25.5 7.5t-5 33.5t13 64.5t34.5 110.5
q47 136 80 318q30 153 87 372q42 152 50 252.5t-14 186.5l-9.5 38t-10 28t-11 20.5t-14.5 11.5t-18 5.5t-25 -1.5t-32 -5.5t-42 -10.5q-98 -26 -163 -27t-116 20q-71 30 -68 95.5t80 119.5q63 44 135 51.5t146 -26t131 -107.5l124 38l124 39l111 212q210 402 436.5 746.5
t339.5 434.5q99 79 183 39q34 -17 60 -48t48.5 -89t35.5 -156t14 -234zM105 799q26 -21 116 -11.5t163 40.5q-21 36 -61.5 53t-81 14t-76 -14t-53.5 -26q-28 -23 -29 -30t22 -26zM661 725q42 103 37 108q-2 2 -79 -20q-35 -10 -52.5 -21t-13.5 -20q15 -38 28 -84
q7 -26 16 -46t13 -20q3 0 10.5 13.5t18.5 38t22 51.5zM1836 1272q27 132 41 248.5t13 272.5q-2 188 -28.5 314t-58.5 167q-27 32 -66.5 15.5t-110.5 -90.5q-77 -79 -201 -257t-250 -390q-94 -158 -198.5 -352.5t-104.5 -210.5q0 -13 35 -4q114 30 190 47q330 80 560 67
l143 -8z" />
    <glyph glyph-name="A" unicode="&#xc2;" horiz-adv-x="1980" 
d="M1974 1837q3 -317 -81 -676q-19 -81 -21.5 -119t7.5 -66q17 -47 17 -128t-17 -98q-20 -20 -40.5 -7t-20.5 46q-1 35 -6 33q-8 -8 -98 -293q-112 -348 -176 -523q-11 -28 -40.5 -33.5t-39.5 19.5q-8 20 22 104q105 283 214 635q4 13 12 38q49 158 50 197q2 44 -36 54
q-28 7 -143 1q-20 -1 -30 -1q-133 -6 -317.5 -41.5t-319.5 -81.5l-107 -35l-89 -222q-91 -227 -114 -356q-23 -132 -102 -449q-78 -314 -88 -457q-6 -83 -13 -114t-21 -33q-25 -5 -34 6q-12 10 -12 36q0 27 -35 25q-18 0 -25.5 7.5t-5 33.5t13 64.5t34.5 110.5
q47 136 80 318q30 153 87 372q42 152 50 252.5t-14 186.5l-9.5 38t-10 28t-11 20.5t-14.5 11.5t-18 5.5t-25 -1.5t-32 -5.5t-42 -10.5q-98 -26 -163 -27t-116 20q-71 30 -68 95.5t80 119.5q63 44 135 51.5t146 -26t131 -107.5l124 38l124 39l111 212q210 402 436.5 746.5
t339.5 434.5q99 79 183 39q34 -17 60 -48t48.5 -89t35.5 -156t14 -234zM105 799q26 -21 116 -11.5t163 40.5q-21 36 -61.5 53t-81 14t-76 -14t-53.5 -26q-28 -23 -29 -30t22 -26zM661 725q42 103 37 108q-2 2 -79 -20q-35 -10 -52.5 -21t-13.5 -20q15 -38 28 -84
q7 -26 16 -46t13 -20q3 0 10.5 13.5t18.5 38t22 51.5zM1836 1272q27 132 41 248.5t13 272.5q-2 188 -28.5 314t-58.5 167q-27 32 -66.5 15.5t-110.5 -90.5q-77 -79 -201 -257t-250 -390q-94 -158 -198.5 -352.5t-104.5 -210.5q0 -13 35 -4q114 30 190 47q330 80 560 67
l143 -8z" />
    <glyph glyph-name="A" unicode="&#xc1;" horiz-adv-x="1980" 
d="M1974 1837q3 -317 -81 -676q-19 -81 -21.5 -119t7.5 -66q17 -47 17 -128t-17 -98q-20 -20 -40.5 -7t-20.5 46q-1 35 -6 33q-8 -8 -98 -293q-112 -348 -176 -523q-11 -28 -40.5 -33.5t-39.5 19.5q-8 20 22 104q105 283 214 635q4 13 12 38q49 158 50 197q2 44 -36 54
q-28 7 -143 1q-20 -1 -30 -1q-133 -6 -317.5 -41.5t-319.5 -81.5l-107 -35l-89 -222q-91 -227 -114 -356q-23 -132 -102 -449q-78 -314 -88 -457q-6 -83 -13 -114t-21 -33q-25 -5 -34 6q-12 10 -12 36q0 27 -35 25q-18 0 -25.5 7.5t-5 33.5t13 64.5t34.5 110.5
q47 136 80 318q30 153 87 372q42 152 50 252.5t-14 186.5l-9.5 38t-10 28t-11 20.5t-14.5 11.5t-18 5.5t-25 -1.5t-32 -5.5t-42 -10.5q-98 -26 -163 -27t-116 20q-71 30 -68 95.5t80 119.5q63 44 135 51.5t146 -26t131 -107.5l124 38l124 39l111 212q210 402 436.5 746.5
t339.5 434.5q99 79 183 39q34 -17 60 -48t48.5 -89t35.5 -156t14 -234zM105 799q26 -21 116 -11.5t163 40.5q-21 36 -61.5 53t-81 14t-76 -14t-53.5 -26q-28 -23 -29 -30t22 -26zM661 725q42 103 37 108q-2 2 -79 -20q-35 -10 -52.5 -21t-13.5 -20q15 -38 28 -84
q7 -26 16 -46t13 -20q3 0 10.5 13.5t18.5 38t22 51.5zM1836 1272q27 132 41 248.5t13 272.5q-2 188 -28.5 314t-58.5 167q-27 32 -66.5 15.5t-110.5 -90.5q-77 -79 -201 -257t-250 -390q-94 -158 -198.5 -352.5t-104.5 -210.5q0 -13 35 -4q114 30 190 47q330 80 560 67
l143 -8z" />
    <glyph glyph-name="A" unicode="&#xc0;" horiz-adv-x="1980" 
d="M1974 1837q3 -317 -81 -676q-19 -81 -21.5 -119t7.5 -66q17 -47 17 -128t-17 -98q-20 -20 -40.5 -7t-20.5 46q-1 35 -6 33q-8 -8 -98 -293q-112 -348 -176 -523q-11 -28 -40.5 -33.5t-39.5 19.5q-8 20 22 104q105 283 214 635q4 13 12 38q49 158 50 197q2 44 -36 54
q-28 7 -143 1q-20 -1 -30 -1q-133 -6 -317.5 -41.5t-319.5 -81.5l-107 -35l-89 -222q-91 -227 -114 -356q-23 -132 -102 -449q-78 -314 -88 -457q-6 -83 -13 -114t-21 -33q-25 -5 -34 6q-12 10 -12 36q0 27 -35 25q-18 0 -25.5 7.5t-5 33.5t13 64.5t34.5 110.5
q47 136 80 318q30 153 87 372q42 152 50 252.5t-14 186.5l-9.5 38t-10 28t-11 20.5t-14.5 11.5t-18 5.5t-25 -1.5t-32 -5.5t-42 -10.5q-98 -26 -163 -27t-116 20q-71 30 -68 95.5t80 119.5q63 44 135 51.5t146 -26t131 -107.5l124 38l124 39l111 212q210 402 436.5 746.5
t339.5 434.5q99 79 183 39q34 -17 60 -48t48.5 -89t35.5 -156t14 -234zM105 799q26 -21 116 -11.5t163 40.5q-21 36 -61.5 53t-81 14t-76 -14t-53.5 -26q-28 -23 -29 -30t22 -26zM661 725q42 103 37 108q-2 2 -79 -20q-35 -10 -52.5 -21t-13.5 -20q15 -38 28 -84
q7 -26 16 -46t13 -20q3 0 10.5 13.5t18.5 38t22 51.5zM1836 1272q27 132 41 248.5t13 272.5q-2 188 -28.5 314t-58.5 167q-27 32 -66.5 15.5t-110.5 -90.5q-77 -79 -201 -257t-250 -390q-94 -158 -198.5 -352.5t-104.5 -210.5q0 -13 35 -4q114 30 190 47q330 80 560 67
l143 -8z" />
    <glyph glyph-name="B" unicode="B" horiz-adv-x="1775" 
d="M1557 1442q101 -80 156.5 -227t55 -329t-58.5 -360q-91 -278 -309 -521.5t-508 -389.5q-151 -76 -333 -100t-311 15q-67 21 -136.5 87t-90.5 129q-36 110 9 250t176 324l89 124l2 134q4 224 90 501.5t229 534.5t307 425q72 74 90 103.5t25 85.5q9 73 28 104.5t48 20.5
q16 -7 19 -21.5t-4 -54.5q-10 -70 -16 -92q-8 -27 24 -36q41 -13 59.5 -69.5t18.5 -167.5q0 -142 -31 -248q-31 -113 -31 -117q0 -2 27.5 -1.5t66.5 3.5q86 6 157.5 -18.5t151.5 -88.5zM1092 2023q0 -49 -37 -215.5t-72 -274.5q-11 -37 -19.5 -68.5t-11.5 -49.5t-1 -18
q10 0 51 43t79 160t52 230.5t0 192.5q-10 39 -25.5 39t-15.5 -39zM379 611v-74l109 116q46 49 89.5 107t59.5 94q58 123 153.5 375t129.5 372q26 91 48 184.5t31 154.5t0 61q-10 0 -64 -63t-108 -138q-91 -124 -193.5 -327.5t-154.5 -364.5q-38 -117 -69 -271t-31 -226z
M433 451q25 27 20 31q-7 0 -36 -31q-25 -28 -19 -31q6 0 35 31zM1633 547q51 155 51 349t-50 312q-31 72 -111 151t-143 100q-61 19 -123 12q-90 -12 -125 -38.5t-79 -117.5q-62 -124 -93 -151t-70 8q-16 16 -27 3q-13 -15 -48 -106q-49 -125 -44 -132q6 -6 105 75
q150 121 330.5 226.5t215.5 92.5q53 -21 -5 -65q-33 -25 -106 -63q-231 -119 -511 -356q-71 -60 -104.5 -104.5t-90.5 -154.5q-86 -164 -128 -214q-27 -33 -44.5 -40.5t-56.5 -1.5l-60 8l-86 -130q-109 -163 -135.5 -271.5t20.5 -199.5q49 -97 178.5 -134.5t304.5 -5.5
q337 63 658 379q159 158 241.5 282.5t135.5 286.5z" />
    <glyph glyph-name="C" unicode="C" horiz-adv-x="1665" 
d="M1792 783q95 0 -131 -195q-334 -292 -492 -424.5t-247 -196.5t-191 -120q-151 -83 -293 -104.5t-243 17t-143 125.5t-45 212t24.5 255.5t82 285.5t114.5 290t134 281q449 880 869 922q192 19 263 -114q77 -145 -14 -490q-24 -90 -113 -275t-174.5 -331t-102.5 -146
q-18 0 -35 26q-9 15 10.5 60.5t83.5 156.5q371 641 284 902q-21 64 -72.5 93.5t-123 23t-166 -59t-193.5 -146.5q-107 -101 -208.5 -250t-221.5 -383q-319 -616 -358 -1041q-6 -73 13.5 -142.5t75 -125t138.5 -64.5q78 -9 165.5 14t215.5 86q109 55 256 169t462 386
q143 125 253.5 214t122.5 89z" />
    <glyph glyph-name="C" unicode="&#xc7;" horiz-adv-x="1665" 
d="M1792 783q95 0 -131 -195q-334 -292 -492 -424.5t-247 -196.5t-191 -120q-151 -83 -293 -104.5t-243 17t-143 125.5t-45 212t24.5 255.5t82 285.5t114.5 290t134 281q449 880 869 922q192 19 263 -114q77 -145 -14 -490q-24 -90 -113 -275t-174.5 -331t-102.5 -146
q-18 0 -35 26q-9 15 10.5 60.5t83.5 156.5q371 641 284 902q-21 64 -72.5 93.5t-123 23t-166 -59t-193.5 -146.5q-107 -101 -208.5 -250t-221.5 -383q-319 -616 -358 -1041q-6 -73 13.5 -142.5t75 -125t138.5 -64.5q78 -9 165.5 14t215.5 86q109 55 256 169t462 386
q143 125 253.5 214t122.5 89z" />
    <glyph glyph-name="D" unicode="D" horiz-adv-x="1388" 
d="M1274 2415q73 -18 133.5 -104t94 -212t43 -281.5t-18.5 -312.5q-40 -236 -143.5 -496.5t-238.5 -461.5q-66 -97 -174 -227.5t-161 -177.5q-58 -52 -151.5 -120.5t-149.5 -101.5q-130 -75 -269 -97t-196 23q-24 20 -30.5 42t-6.5 87q1 64 12 104.5t47 114.5
q119 242 401 514q147 141 278.5 236.5t309.5 188.5q139 73 182.5 86t53.5 -13q10 -25 -15 -45t-130 -70q-182 -88 -368.5 -226.5t-332 -288.5t-245 -304t-116.5 -271q-10 -70 14.5 -91t107.5 -14q225 20 512 279.5t480 617.5q150 279 220.5 580t39.5 536
q-26 209 -90.5 321.5t-156.5 112.5q-114 0 -285.5 -140.5t-307.5 -345.5q-86 -130 -187.5 -337t-160.5 -371q-57 -163 -65 -298q-8 -132 11 -135q10 -2 31 23q23 30 39 81q21 58 49 63q20 3 29 -30q1 -1 1 -2q9 -37 -15 -92.5t-64.5 -96t-74.5 -40.5q-37 0 -87 34t-63 68
q-39 103 28.5 439.5t210.5 754.5q131 383 195 433q35 28 62 -23q25 -46 -37.5 -215t-157.5 -312q-38 -58 -129 -374.5t-74 -333.5q1 -1 3 2.5t5.5 10t7.5 15.5t8.5 21.5t10 26t11 29.5t11.5 33q53 148 149 339t188 331q90 134 218 266.5t223 187.5q66 40 146.5 57t134.5 3z
" />
    <glyph glyph-name="E" unicode="E" horiz-adv-x="1292" 
d="M1240 1733q-24 4 -32 14.5t0 27.5t31 42q43 46 81 124.5t57 155.5t22 145t-23 93q-117 129 -482 -252q-411 -431 -424 -625q-7 -113 127 -129q21 -2 45 -2q54 0 113.5 15t168.5 56q183 69 258 92t119 23q36 0 52 -17.5t2 -40.5q-7 -13 -242 -132q-225 -111 -396 -221
q-274 -177 -447 -419.5t-178 -456.5q-3 -131 50 -192.5t176 -68.5q59 -3 101 4t105 31q113 43 321.5 170t387.5 263q180 135 221 139q21 -4 23 -27q0 -27 -146.5 -140t-343.5 -239.5t-329 -191.5q-112 -56 -157 -68.5t-139 -16.5q-82 -3 -117.5 2t-71.5 24
q-142 77 -163.5 240.5t81.5 379.5q84 179 223 331t349 296q125 85 126 94q1 5 -22 1q-5 -1 -11 -2q-123 -24 -219 2t-127 93q-56 124 53.5 320t403.5 498q163 167 271 232.5t194 49.5q53 -10 98.5 -55t55.5 -97q11 -57 -13 -156.5t-63.5 -191t-88 -157t-81.5 -60.5z" />
    <glyph glyph-name="E" unicode="&#xcb;" horiz-adv-x="1292" 
d="M1240 1733q-24 4 -32 14.5t0 27.5t31 42q43 46 81 124.5t57 155.5t22 145t-23 93q-117 129 -482 -252q-411 -431 -424 -625q-7 -113 127 -129q21 -2 45 -2q54 0 113.5 15t168.5 56q183 69 258 92t119 23q36 0 52 -17.5t2 -40.5q-7 -13 -242 -132q-225 -111 -396 -221
q-274 -177 -447 -419.5t-178 -456.5q-3 -131 50 -192.5t176 -68.5q59 -3 101 4t105 31q113 43 321.5 170t387.5 263q180 135 221 139q21 -4 23 -27q0 -27 -146.5 -140t-343.5 -239.5t-329 -191.5q-112 -56 -157 -68.5t-139 -16.5q-82 -3 -117.5 2t-71.5 24
q-142 77 -163.5 240.5t81.5 379.5q84 179 223 331t349 296q125 85 126 94q1 5 -22 1q-5 -1 -11 -2q-123 -24 -219 2t-127 93q-56 124 53.5 320t403.5 498q163 167 271 232.5t194 49.5q53 -10 98.5 -55t55.5 -97q11 -57 -13 -156.5t-63.5 -191t-88 -157t-81.5 -60.5z" />
    <glyph glyph-name="E" unicode="&#xca;" horiz-adv-x="1292" 
d="M1240 1733q-24 4 -32 14.5t0 27.5t31 42q43 46 81 124.5t57 155.5t22 145t-23 93q-117 129 -482 -252q-411 -431 -424 -625q-7 -113 127 -129q21 -2 45 -2q54 0 113.5 15t168.5 56q183 69 258 92t119 23q36 0 52 -17.5t2 -40.5q-7 -13 -242 -132q-225 -111 -396 -221
q-274 -177 -447 -419.5t-178 -456.5q-3 -131 50 -192.5t176 -68.5q59 -3 101 4t105 31q113 43 321.5 170t387.5 263q180 135 221 139q21 -4 23 -27q0 -27 -146.5 -140t-343.5 -239.5t-329 -191.5q-112 -56 -157 -68.5t-139 -16.5q-82 -3 -117.5 2t-71.5 24
q-142 77 -163.5 240.5t81.5 379.5q84 179 223 331t349 296q125 85 126 94q1 5 -22 1q-5 -1 -11 -2q-123 -24 -219 2t-127 93q-56 124 53.5 320t403.5 498q163 167 271 232.5t194 49.5q53 -10 98.5 -55t55.5 -97q11 -57 -13 -156.5t-63.5 -191t-88 -157t-81.5 -60.5z" />
    <glyph glyph-name="E" unicode="&#xc9;" horiz-adv-x="1292" 
d="M1240 1733q-24 4 -32 14.5t0 27.5t31 42q43 46 81 124.5t57 155.5t22 145t-23 93q-117 129 -482 -252q-411 -431 -424 -625q-7 -113 127 -129q21 -2 45 -2q54 0 113.5 15t168.5 56q183 69 258 92t119 23q36 0 52 -17.5t2 -40.5q-7 -13 -242 -132q-225 -111 -396 -221
q-274 -177 -447 -419.5t-178 -456.5q-3 -131 50 -192.5t176 -68.5q59 -3 101 4t105 31q113 43 321.5 170t387.5 263q180 135 221 139q21 -4 23 -27q0 -27 -146.5 -140t-343.5 -239.5t-329 -191.5q-112 -56 -157 -68.5t-139 -16.5q-82 -3 -117.5 2t-71.5 24
q-142 77 -163.5 240.5t81.5 379.5q84 179 223 331t349 296q125 85 126 94q1 5 -22 1q-5 -1 -11 -2q-123 -24 -219 2t-127 93q-56 124 53.5 320t403.5 498q163 167 271 232.5t194 49.5q53 -10 98.5 -55t55.5 -97q11 -57 -13 -156.5t-63.5 -191t-88 -157t-81.5 -60.5z" />
    <glyph glyph-name="E" unicode="&#xc8;" horiz-adv-x="1292" 
d="M1240 1733q-24 4 -32 14.5t0 27.5t31 42q43 46 81 124.5t57 155.5t22 145t-23 93q-117 129 -482 -252q-411 -431 -424 -625q-7 -113 127 -129q21 -2 45 -2q54 0 113.5 15t168.5 56q183 69 258 92t119 23q36 0 52 -17.5t2 -40.5q-7 -13 -242 -132q-225 -111 -396 -221
q-274 -177 -447 -419.5t-178 -456.5q-3 -131 50 -192.5t176 -68.5q59 -3 101 4t105 31q113 43 321.5 170t387.5 263q180 135 221 139q21 -4 23 -27q0 -27 -146.5 -140t-343.5 -239.5t-329 -191.5q-112 -56 -157 -68.5t-139 -16.5q-82 -3 -117.5 2t-71.5 24
q-142 77 -163.5 240.5t81.5 379.5q84 179 223 331t349 296q125 85 126 94q1 5 -22 1q-5 -1 -11 -2q-123 -24 -219 2t-127 93q-56 124 53.5 320t403.5 498q163 167 271 232.5t194 49.5q53 -10 98.5 -55t55.5 -97q11 -57 -13 -156.5t-63.5 -191t-88 -157t-81.5 -60.5z" />
    <glyph glyph-name="F" unicode="F" horiz-adv-x="1878" 
d="M1777 901q-149 14 -328 3l-176 -10l-81 -181q-104 -228 -243 -513q-160 -334 -156 -374q3 -46 -35 -85t-74 -26q-18 6 -20 16q-6 26 71 198q52 115 285 610q42 87 78 166t55.5 124t17.5 47q-9 9 -149 -11t-167 -34q-23 -10 -36 -7t-34 24q-24 24 -25.5 32.5t17.5 22.5
q11 8 77 20t144 19q195 22 217 39q21 17 134 283.5t163 420.5q63 194 47 214q-5 6 -16 2q-20 -10 -139 -28q-119 -22 -119 -25q0 -7 48 -66q68 -85 57.5 -187.5t-109.5 -328.5q-79 -183 -109 -183q-34 0 -33 31q1 42 66 181q68 146 91 224t13 131q-9 49 -43 92t-78 62
q-38 16 -135 -1.5t-517 -115.5q-342 -79 -434 -75q-67 4 -81.5 10.5t-14.5 32.5q0 37 69.5 73.5t255.5 97.5q202 65 352.5 89t297.5 14q174 -12 191 -12q42 -1 224.5 35t182.5 45t-35 9q-20 -1 -28.5 8t-11.5 35q-4 42 15 65t59 23q79 0 79 -80q0 -42 12 -48q12 -8 251 30
q224 33 502.5 45t360.5 -8q74 -19 109.5 -52.5t35.5 -85.5q0 -50 -39.5 -112.5t-67.5 -56.5q-28 5 -28 35t28 67q59 80 -10 112q-63 28 -255 29q-134 1 -335 -18t-401 -52q-139 -22 -150 -22q-3 0 -7.5 -10.5t-10.5 -29.5t-11 -41q-51 -214 -223 -614q-102 -237 -102 -240
t259 -3q227 0 301.5 -10.5t74.5 -43.5q0 -29 -11 -36t-163 9zM849 1850q10 10 -44 3q-136 -16 -364 -77q-107 -28 -148 -47q-32 -15 -32 -18q-1 -6 312 68h1h1l1 1h2q264 63 271 70z" />
    <glyph glyph-name="G" unicode="G" horiz-adv-x="1617" 
d="M1275 955q0 14 147.5 350.5t225.5 498.5q40 86 63 138t19 52q-17 0 -198 -163q-118 -105 -118 -138q0 -40 -16.5 -57t-47.5 -9q-23 6 -74.5 -34.5t-209.5 -190.5q-249 -235 -401.5 -357t-250.5 -164.5t-170 -18.5q-53 17 -77 54t-24 101q0 189 135 431.5t370 475.5
q230 228 418.5 272t314.5 -100q33 -37 45.5 -73.5t22.5 -118.5q2 -17 10 -17q13 0 96 72q6 6 14 13q146 128 221.5 170.5t95.5 7.5q8 -12 -140 -330q-147 -309 -326 -723l-2 -4q-15 -35 -8 -36q11 -1 129 76l1 1l1 1h1l1 1l1 1h1l1 1h1l1 1l1 1h1l1 1l1 1h1l1 1l1 1h1l1 1
l1 1h1l1 1h1v1l1 1l2 1h1l1 1l1 1h1l1 1h1l1 1l1 1h1v1l1 1h1l1 1l1 1h1l1 1l1 1h1l1 1l2 1q133 88 243 143q73 38 96.5 44.5t39.5 -6.5q14 -12 15.5 -22t-14 -25t-46.5 -34t-90 -50q-126 -67 -264.5 -158t-194.5 -144q-59 -59 -86 -142q-30 -88 -127 -309
q-407 -916 -832 -1132q-99 -51 -180.5 -60t-113.5 26q-30 33 -22.5 110t50.5 163q46 95 157 259.5t219 299.5q102 128 349 373.5t380 353.5q45 35 78.5 66t33.5 36zM1175 712l22 58l-44 -31q-69 -49 -299.5 -279.5t-323.5 -343.5q-181 -218 -315 -436.5t-134 -295.5
q0 -33 8.5 -37.5t57.5 2.5q62 9 159 61q97 51 219 174.5t214 263.5q115 177 244 432.5t192 431.5zM1364 1872q9 108 -43.5 174.5t-144.5 71.5t-211 -50q-116 -59 -285 -229.5t-294 -356.5q-77 -117 -127.5 -274.5t-31.5 -229.5q7 -25 19.5 -32t53.5 -7q60 0 112 25
q92 47 270.5 200.5t575.5 528.5q72 67 86.5 92t19.5 87z" />
    <glyph glyph-name="H" unicode="H" horiz-adv-x="2007" 
d="M1896 1051q-36 -58 -151.5 -398.5t-195.5 -622.5q-77 -273 -104 -450t5 -197q15 -8 60 22q79 56 104 15q10 -16 -17 -46t-70.5 -53t-75.5 -23q-31 0 -63 34q-40 41 -28 191t73 387q123 477 301 953q63 166 63 183q0 12 -44 12q-50 0 -282.5 -54.5t-399.5 -105.5l-67 -20
l-202 -394q-228 -446 -353 -652.5t-175 -223.5q-28 -9 -52 10q-35 29 14.5 175.5t203.5 473.5q200 421 176 443q-6 8 -99 -33q-87 -40 -170 -42q-50 -2 -64 3t-17 26q-4 30 65.5 79t159.5 83t137 26t170 36q43 15 62 21.5t44 25t34 30.5t28 51t31 73t38 110
q81 237 113.5 450t9.5 354t-97 174q-42 19 -127 2q-126 -26 -288 -137.5t-307 -269t-223 -309.5q-19 -36 -19 -46.5t17 -19.5q30 -17 24.5 -46t-41.5 -39q-52 -13 -75.5 9t-15.5 73.5t47 121.5q100 179 264.5 348.5t341.5 278t312 119.5q58 5 84.5 0t59.5 -28
q136 -91 135.5 -371.5t-137.5 -682.5q-49 -147 -64 -174q-1 -2 -4 -7q-8 -15 1 -16q16 -2 247 58h1l1 1h1h2h1v1h1h1h1l1 1h1h1h1l1 1h1h1h1l1 1h1h1h1l1 1h1h1h1l1 1h1h1l1 1h1h1h1l1 1h1h1h1l1 1h1h1h1l1 1h1h1h1l1 1h1h1h1l1 1h1h1h1l1 1h1h1h1l2 1q234 61 367 81l124 18
l115 312q115 307 152.5 421t81.5 287q23 90 35 128.5t22.5 53t26.5 17.5q22 3 27.5 -5.5t5.5 -42.5q0 -61 -71 -295.5t-175 -512.5q-127 -338 -136 -387q-9 -51 -30 -80zM486 56q91 163 185 344t149.5 301t47.5 122q-15 5 -85 -27q-71 -30 -71 -63q0 -83 -171 -442
q-254 -534 -212 -500q5 4 17 20q23 33 140 245z" />
    <glyph glyph-name="I" unicode="I" horiz-adv-x="1210" 
d="M812 2161q384 108 605 126t333 -48q72 -42 67 -68q-6 -30 -37 -30t-73 30q-34 24 -69.5 30t-149.5 5q-120 -1 -148.5 -6.5t-45.5 -31.5q-21 -30 -181 -432q-208 -521 -247 -614q-167 -406 -310.5 -808t-127.5 -418q10 -10 108 25q86 30 300.5 76t227.5 37
q20 -12 11.5 -40.5t-34.5 -34.5l-190 -40q-362 -75 -439 -156q-27 -29 -42 -35t-32 4q-17 9 -46 2.5t-90 -32.5q-177 -76 -194 -27q-2 4 -2 10q0 16 33.5 35t118.5 52l153 59l119 360q133 395 276 745q495 1223 477 1230q-10 4 -158.5 -32t-277.5 -73q-66 -19 -89 -21
t-42 12q-29 23 -6 40q29 21 202 69z" />
    <glyph glyph-name="I" unicode="&#xcf;" horiz-adv-x="1210" 
d="M812 2161q384 108 605 126t333 -48q72 -42 67 -68q-6 -30 -37 -30t-73 30q-34 24 -69.5 30t-149.5 5q-120 -1 -148.5 -6.5t-45.5 -31.5q-21 -30 -181 -432q-208 -521 -247 -614q-167 -406 -310.5 -808t-127.5 -418q10 -10 108 25q86 30 300.5 76t227.5 37
q20 -12 11.5 -40.5t-34.5 -34.5l-190 -40q-362 -75 -439 -156q-27 -29 -42 -35t-32 4q-17 9 -46 2.5t-90 -32.5q-177 -76 -194 -27q-2 4 -2 10q0 16 33.5 35t118.5 52l153 59l119 360q133 395 276 745q495 1223 477 1230q-10 4 -158.5 -32t-277.5 -73q-66 -19 -89 -21
t-42 12q-29 23 -6 40q29 21 202 69z" />
    <glyph glyph-name="I" unicode="&#xce;" horiz-adv-x="1210" 
d="M812 2161q384 108 605 126t333 -48q72 -42 67 -68q-6 -30 -37 -30t-73 30q-34 24 -69.5 30t-149.5 5q-120 -1 -148.5 -6.5t-45.5 -31.5q-21 -30 -181 -432q-208 -521 -247 -614q-167 -406 -310.5 -808t-127.5 -418q10 -10 108 25q86 30 300.5 76t227.5 37
q20 -12 11.5 -40.5t-34.5 -34.5l-190 -40q-362 -75 -439 -156q-27 -29 -42 -35t-32 4q-17 9 -46 2.5t-90 -32.5q-177 -76 -194 -27q-2 4 -2 10q0 16 33.5 35t118.5 52l153 59l119 360q133 395 276 745q495 1223 477 1230q-10 4 -158.5 -32t-277.5 -73q-66 -19 -89 -21
t-42 12q-29 23 -6 40q29 21 202 69z" />
    <glyph glyph-name="I" unicode="&#xcd;" horiz-adv-x="1210" 
d="M812 2161q384 108 605 126t333 -48q72 -42 67 -68q-6 -30 -37 -30t-73 30q-34 24 -69.5 30t-149.5 5q-120 -1 -148.5 -6.5t-45.5 -31.5q-21 -30 -181 -432q-208 -521 -247 -614q-167 -406 -310.5 -808t-127.5 -418q10 -10 108 25q86 30 300.5 76t227.5 37
q20 -12 11.5 -40.5t-34.5 -34.5l-190 -40q-362 -75 -439 -156q-27 -29 -42 -35t-32 4q-17 9 -46 2.5t-90 -32.5q-177 -76 -194 -27q-2 4 -2 10q0 16 33.5 35t118.5 52l153 59l119 360q133 395 276 745q495 1223 477 1230q-10 4 -158.5 -32t-277.5 -73q-66 -19 -89 -21
t-42 12q-29 23 -6 40q29 21 202 69z" />
    <glyph glyph-name="I" unicode="&#xcc;" horiz-adv-x="1210" 
d="M812 2161q384 108 605 126t333 -48q72 -42 67 -68q-6 -30 -37 -30t-73 30q-34 24 -69.5 30t-149.5 5q-120 -1 -148.5 -6.5t-45.5 -31.5q-21 -30 -181 -432q-208 -521 -247 -614q-167 -406 -310.5 -808t-127.5 -418q10 -10 108 25q86 30 300.5 76t227.5 37
q20 -12 11.5 -40.5t-34.5 -34.5l-190 -40q-362 -75 -439 -156q-27 -29 -42 -35t-32 4q-17 9 -46 2.5t-90 -32.5q-177 -76 -194 -27q-2 4 -2 10q0 16 33.5 35t118.5 52l153 59l119 360q133 395 276 745q495 1223 477 1230q-10 4 -158.5 -32t-277.5 -73q-66 -19 -89 -21
t-42 12q-29 23 -6 40q29 21 202 69z" />
    <glyph glyph-name="J" unicode="J" horiz-adv-x="1382" 
d="M1259 1272q143 286 232 526t96 359q4 61 -1 74t-34 17q-47 5 -225 -90.5t-316 -200.5q-146 -110 -333 -298t-238 -277q-43 -76 -48.5 -136.5t29.5 -80.5q44 -23 171.5 -14t271.5 45q71 18 116 27t73.5 9.5t39.5 -6.5t11 -23q0 -11 -7.5 -19t-34 -18.5t-71.5 -22.5
t-127 -31q-171 -40 -314 -40q-102 0 -129.5 6.5t-64.5 38.5q-34 31 -42 51t-6 73q4 122 142 296q74 93 238.5 248t287.5 247q216 163 419.5 246.5t249.5 28.5q59 -72 -8 -322.5t-248 -630.5q-94 -198 -74 -198q1 0 3 1q130 56 212 75.5t206 23.5q179 6 206 -19q13 -12 4 -34
q-4 -13 -36 -17.5t-114 -4.5q-127 0 -228 -22.5t-219 -76.5q-68 -30 -100.5 -54.5t-60 -64t-74.5 -131.5q-82 -160 -261.5 -467t-366.5 -609q-163 -262 -240.5 -356.5t-129.5 -94.5q-20 0 -41.5 9t-31.5 22q-53 59 -30.5 195t116.5 332q158 327 392.5 620t488.5 482l152 111
zM751 351q101 174 159 275t92 163t44 83t8 23q-12 12 -165 -132.5t-242 -251.5q-250 -299 -418 -626t-139 -459q6 -30 13.5 -37t21 2t44.5 42q124 132 582 918z" />
    <glyph glyph-name="K" unicode="K" horiz-adv-x="1570" 
d="M2215 1711q-8 14 76 98q85 85 85 125q0 29 -10 35.5t-57 6.5q-68 0 -190 -40q-101 -32 -332 -143t-395 -206q-185 -107 -473 -306t-356 -267q-25 -25 -100 -213q-20 -51 -28 -70t-18 -52.5t-12.5 -42t-0.5 -31t5.5 -27.5t18.5 -25t25 -28.5t37 -33.5q167 -154 405.5 -171
t574.5 100q153 54 199 62q29 6 35.5 1.5t2.5 -27.5q-3 -21 -26.5 -37.5t-89.5 -42.5q-376 -149 -676.5 -132.5t-488.5 197.5l-78 74l-41 -103q-137 -340 -194 -570t-8 -249q10 -3 17 -14t7 -23q0 -20 -22.5 -27.5t-49 0t-36.5 27.5q-20 38 -14 131t36 205q29 110 98.5 307.5
t113.5 296.5q32 79 31 174q-3 83 24.5 148t101.5 155q27 33 60 92t55 117q50 127 189.5 542t179.5 554q33 114 53 147t46 17q25 -16 -8.5 -138.5t-191.5 -595.5q-75 -224 -126 -381.5t-49 -157.5q4 0 117 83q339 249 738 470.5t646 298.5q93 29 168 31.5t116.5 -19.5
t55.5 -60t-12 -93.5t-89 -117.5q-47 -46 -88 -60.5t-57 9.5z" />
    <glyph glyph-name="L" unicode="L" horiz-adv-x="1224" 
d="M1597 182q-12 -5 -104.5 -13.5t-263.5 -40t-356 -89.5q-223 -70 -407.5 -182.5t-315.5 -254.5q-67 -74 -87.5 -88.5t-41.5 -0.5q-14 9 -14.5 20t9.5 37q39 97 167 392q280 656 376.5 906t191.5 568q78 262 73 272q-2 5 -18 -19l-2 -2q-21 -30 -45.5 -25t-24.5 40
q0 13 20.5 54.5t49.5 86.5q71 118 102 201q35 89 62 89t37 -16q14 -22 -97.5 -422.5t-211.5 -687.5q-79 -226 -204 -519q-301 -715 -301 -722q0 -2 15 8t42.5 29.5t56.5 42.5q139 104 405.5 209t434.5 137q88 17 189 30.5t174.5 21.5t77.5 9q25 5 36 -9.5t3.5 -33.5
t-28.5 -28z" />
    <glyph glyph-name="M" unicode="M" horiz-adv-x="2099" 
d="M2084 1391q16 -81 -5.5 -202t-96.5 -374q-193 -649 -193 -730q0 -45 -15.5 -59t-41.5 8q-26 23 -12.5 118.5t70.5 290.5q151 511 183.5 637.5t32.5 206.5q0 108 -9 131q-19 52 -154 -12q-157 -74 -373.5 -299t-391.5 -497q-45 -70 -86 -124t-51 -58q-27 -9 -49 13
q-16 16 0 49.5t101 157.5q112 163 267.5 450.5t227.5 465.5q146 357 146 598q0 118 -18.5 151.5t-77.5 21.5q-65 -12 -190 -106.5t-272 -242.5q-174 -174 -281 -313.5t-107 -193.5q0 -187 -97 -552.5t-214 -613.5q-49 -106 -122.5 -215t-107.5 -128q-59 -31 -100 1.5
t-41 111.5q0 56 32 199q36 150 141 433q63 168 160 365t185 337l86 136v131q0 127 -24 256q-25 125 -8 142q29 30 58 -37q18 -42 30 -109q20 -103 22 -180q0 -11 0.5 -21t2 -17.5t3 -13.5t3 -9t3.5 -3q9 0 89 100q112 147 264.5 292.5t289.5 239t208 98.5q93 6 129 -50.5
t36 -208.5q0 -345 -259 -858q-71 -142 -71 -151t120 102q283 261 442 264q111 2 136 -129zM426 649q57 169 120 431t45 278q-18 18 -175 -322.5t-209 -487.5q-99 -282 -116 -416q-10 -79 5 -82.5t71 62.5q46 53 123.5 209.5t135.5 327.5z" />
    <glyph glyph-name="N" unicode="N" horiz-adv-x="1748" 
d="M136 -61q-28 -59 -68.5 -62t-54.5 53q-16 60 1 260t53 372q55 268 131 469.5t186 371.5q86 135 151.5 180.5t132.5 17.5q59 -25 97.5 -135.5t64.5 -333.5t45 -601q30 -560 71 -703q16 -53 29.5 -71.5t47.5 -32.5q110 -46 212.5 84.5t202.5 444.5q105 327 154 682.5
t68 924.5q8 238 4.5 287t-29.5 83q-16 22 -22 42.5t-0.5 32t16.5 16.5t29.5 -2.5t37.5 -26.5q34 -35 42 -122.5t0 -353.5q-14 -423 -41 -686.5t-86 -542.5q-50 -240 -142.5 -487.5t-167.5 -344.5q-59 -77 -149.5 -109t-161.5 0q-41 18 -67.5 49.5t-47.5 86t-34.5 156
t-23.5 236t-20 349.5q-24 526 -66 760t-114 245q-47 7 -147 -139t-179 -339q-70 -169 -129.5 -429t-72.5 -458q-3 -53 -4 -79.5t0.5 -44t5.5 -20.5t12 0q20 8 33 -1.5t13 -30.5t-13 -48z" />
    <glyph glyph-name="N" unicode="&#xd1;" horiz-adv-x="1748" 
d="M136 -61q-28 -59 -68.5 -62t-54.5 53q-16 60 1 260t53 372q55 268 131 469.5t186 371.5q86 135 151.5 180.5t132.5 17.5q59 -25 97.5 -135.5t64.5 -333.5t45 -601q30 -560 71 -703q16 -53 29.5 -71.5t47.5 -32.5q110 -46 212.5 84.5t202.5 444.5q105 327 154 682.5
t68 924.5q8 238 4.5 287t-29.5 83q-16 22 -22 42.5t-0.5 32t16.5 16.5t29.5 -2.5t37.5 -26.5q34 -35 42 -122.5t0 -353.5q-14 -423 -41 -686.5t-86 -542.5q-50 -240 -142.5 -487.5t-167.5 -344.5q-59 -77 -149.5 -109t-161.5 0q-41 18 -67.5 49.5t-47.5 86t-34.5 156
t-23.5 236t-20 349.5q-24 526 -66 760t-114 245q-47 7 -147 -139t-179 -339q-70 -169 -129.5 -429t-72.5 -458q-3 -53 -4 -79.5t0.5 -44t5.5 -20.5t12 0q20 8 33 -1.5t13 -30.5t-13 -48z" />
    <glyph glyph-name="O" unicode="O" horiz-adv-x="1646" 
d="M1926 924q2 -17 -38.5 -49t-155.5 -106q-211 -134 -332 -198q-90 -50 -123.5 -79t-85.5 -105q-163 -241 -368.5 -442.5t-352.5 -265.5q-61 -26 -133.5 -36t-121.5 2q-111 26 -165 138q-49 100 -43.5 335t62.5 448q30 115 30 235q0 170 79 377t209.5 386.5t273.5 275.5
q83 55 163 78t190 23q172 0 278 -60t170 -193q89 -181 77 -420t-121 -487q-50 -115 -43 -122q8 -8 141 69t248 155q50 33 78.5 49.5t47 21t26 -2.5t10.5 -27zM773 10q91 93 220 246.5t129 169.5q0 4 -41 -7.5t-102 -31.5q-92 -31 -148 -39.5t-166 -9.5q-116 -1 -158 6
t-109 38q-95 43 -168 120q-71 78 -77 72q-16 -17 -37.5 -165t-26.5 -266q-8 -168 7.5 -247t64.5 -128q28 -27 51.5 -35.5t70.5 -8.5q77 0 127 18q150 52 363 268zM1124 526q74 34 96.5 57t71.5 116q209 399 158 738q-21 150 -68 238t-134 139q-50 28 -86 35t-140 7
q-156 0 -245 -40.5t-212 -166.5q-186 -189 -304 -490q-73 -185 -52 -167q17 14 88 154q120 234 258 418t230 231q46 24 87 18.5t41 -34.5q0 -32 -54 -44q-50 -13 -105.5 -64t-141.5 -164q-107 -142 -180.5 -273.5t-168.5 -353.5q-44 -102 -53.5 -146.5t3 -77.5t62.5 -90
q199 -226 602 -122q144 34 247 82z" />
    <glyph glyph-name="O" unicode="&#xd8;" horiz-adv-x="1646" 
d="M1926 924q2 -17 -38.5 -49t-155.5 -106q-211 -134 -332 -198q-90 -50 -123.5 -79t-85.5 -105q-163 -241 -368.5 -442.5t-352.5 -265.5q-61 -26 -133.5 -36t-121.5 2q-111 26 -165 138q-49 100 -43.5 335t62.5 448q30 115 30 235q0 170 79 377t209.5 386.5t273.5 275.5
q83 55 163 78t190 23q172 0 278 -60t170 -193q89 -181 77 -420t-121 -487q-50 -115 -43 -122q8 -8 141 69t248 155q50 33 78.5 49.5t47 21t26 -2.5t10.5 -27zM773 10q91 93 220 246.5t129 169.5q0 4 -41 -7.5t-102 -31.5q-92 -31 -148 -39.5t-166 -9.5q-116 -1 -158 6
t-109 38q-95 43 -168 120q-71 78 -77 72q-16 -17 -37.5 -165t-26.5 -266q-8 -168 7.5 -247t64.5 -128q28 -27 51.5 -35.5t70.5 -8.5q77 0 127 18q150 52 363 268zM1124 526q74 34 96.5 57t71.5 116q209 399 158 738q-21 150 -68 238t-134 139q-50 28 -86 35t-140 7
q-156 0 -245 -40.5t-212 -166.5q-186 -189 -304 -490q-73 -185 -52 -167q17 14 88 154q120 234 258 418t230 231q46 24 87 18.5t41 -34.5q0 -32 -54 -44q-50 -13 -105.5 -64t-141.5 -164q-107 -142 -180.5 -273.5t-168.5 -353.5q-44 -102 -53.5 -146.5t3 -77.5t62.5 -90
q199 -226 602 -122q144 34 247 82z" />
    <glyph glyph-name="O" unicode="&#xd6;" horiz-adv-x="1646" 
d="M1926 924q2 -17 -38.5 -49t-155.5 -106q-211 -134 -332 -198q-90 -50 -123.5 -79t-85.5 -105q-163 -241 -368.5 -442.5t-352.5 -265.5q-61 -26 -133.5 -36t-121.5 2q-111 26 -165 138q-49 100 -43.5 335t62.5 448q30 115 30 235q0 170 79 377t209.5 386.5t273.5 275.5
q83 55 163 78t190 23q172 0 278 -60t170 -193q89 -181 77 -420t-121 -487q-50 -115 -43 -122q8 -8 141 69t248 155q50 33 78.5 49.5t47 21t26 -2.5t10.5 -27zM773 10q91 93 220 246.5t129 169.5q0 4 -41 -7.5t-102 -31.5q-92 -31 -148 -39.5t-166 -9.5q-116 -1 -158 6
t-109 38q-95 43 -168 120q-71 78 -77 72q-16 -17 -37.5 -165t-26.5 -266q-8 -168 7.5 -247t64.5 -128q28 -27 51.5 -35.5t70.5 -8.5q77 0 127 18q150 52 363 268zM1124 526q74 34 96.5 57t71.5 116q209 399 158 738q-21 150 -68 238t-134 139q-50 28 -86 35t-140 7
q-156 0 -245 -40.5t-212 -166.5q-186 -189 -304 -490q-73 -185 -52 -167q17 14 88 154q120 234 258 418t230 231q46 24 87 18.5t41 -34.5q0 -32 -54 -44q-50 -13 -105.5 -64t-141.5 -164q-107 -142 -180.5 -273.5t-168.5 -353.5q-44 -102 -53.5 -146.5t3 -77.5t62.5 -90
q199 -226 602 -122q144 34 247 82z" />
    <glyph glyph-name="O" unicode="&#xd5;" horiz-adv-x="1646" 
d="M1926 924q2 -17 -38.5 -49t-155.5 -106q-211 -134 -332 -198q-90 -50 -123.5 -79t-85.5 -105q-163 -241 -368.5 -442.5t-352.5 -265.5q-61 -26 -133.5 -36t-121.5 2q-111 26 -165 138q-49 100 -43.5 335t62.5 448q30 115 30 235q0 170 79 377t209.5 386.5t273.5 275.5
q83 55 163 78t190 23q172 0 278 -60t170 -193q89 -181 77 -420t-121 -487q-50 -115 -43 -122q8 -8 141 69t248 155q50 33 78.5 49.5t47 21t26 -2.5t10.5 -27zM773 10q91 93 220 246.5t129 169.5q0 4 -41 -7.5t-102 -31.5q-92 -31 -148 -39.5t-166 -9.5q-116 -1 -158 6
t-109 38q-95 43 -168 120q-71 78 -77 72q-16 -17 -37.5 -165t-26.5 -266q-8 -168 7.5 -247t64.5 -128q28 -27 51.5 -35.5t70.5 -8.5q77 0 127 18q150 52 363 268zM1124 526q74 34 96.5 57t71.5 116q209 399 158 738q-21 150 -68 238t-134 139q-50 28 -86 35t-140 7
q-156 0 -245 -40.5t-212 -166.5q-186 -189 -304 -490q-73 -185 -52 -167q17 14 88 154q120 234 258 418t230 231q46 24 87 18.5t41 -34.5q0 -32 -54 -44q-50 -13 -105.5 -64t-141.5 -164q-107 -142 -180.5 -273.5t-168.5 -353.5q-44 -102 -53.5 -146.5t3 -77.5t62.5 -90
q199 -226 602 -122q144 34 247 82z" />
    <glyph glyph-name="O" unicode="&#xd4;" horiz-adv-x="1646" 
d="M1926 924q2 -17 -38.5 -49t-155.5 -106q-211 -134 -332 -198q-90 -50 -123.5 -79t-85.5 -105q-163 -241 -368.5 -442.5t-352.5 -265.5q-61 -26 -133.5 -36t-121.5 2q-111 26 -165 138q-49 100 -43.5 335t62.5 448q30 115 30 235q0 170 79 377t209.5 386.5t273.5 275.5
q83 55 163 78t190 23q172 0 278 -60t170 -193q89 -181 77 -420t-121 -487q-50 -115 -43 -122q8 -8 141 69t248 155q50 33 78.5 49.5t47 21t26 -2.5t10.5 -27zM773 10q91 93 220 246.5t129 169.5q0 4 -41 -7.5t-102 -31.5q-92 -31 -148 -39.5t-166 -9.5q-116 -1 -158 6
t-109 38q-95 43 -168 120q-71 78 -77 72q-16 -17 -37.5 -165t-26.5 -266q-8 -168 7.5 -247t64.5 -128q28 -27 51.5 -35.5t70.5 -8.5q77 0 127 18q150 52 363 268zM1124 526q74 34 96.5 57t71.5 116q209 399 158 738q-21 150 -68 238t-134 139q-50 28 -86 35t-140 7
q-156 0 -245 -40.5t-212 -166.5q-186 -189 -304 -490q-73 -185 -52 -167q17 14 88 154q120 234 258 418t230 231q46 24 87 18.5t41 -34.5q0 -32 -54 -44q-50 -13 -105.5 -64t-141.5 -164q-107 -142 -180.5 -273.5t-168.5 -353.5q-44 -102 -53.5 -146.5t3 -77.5t62.5 -90
q199 -226 602 -122q144 34 247 82z" />
    <glyph glyph-name="O" unicode="&#xd3;" horiz-adv-x="1646" 
d="M1926 924q2 -17 -38.5 -49t-155.5 -106q-211 -134 -332 -198q-90 -50 -123.5 -79t-85.5 -105q-163 -241 -368.5 -442.5t-352.5 -265.5q-61 -26 -133.5 -36t-121.5 2q-111 26 -165 138q-49 100 -43.5 335t62.5 448q30 115 30 235q0 170 79 377t209.5 386.5t273.5 275.5
q83 55 163 78t190 23q172 0 278 -60t170 -193q89 -181 77 -420t-121 -487q-50 -115 -43 -122q8 -8 141 69t248 155q50 33 78.5 49.5t47 21t26 -2.5t10.5 -27zM773 10q91 93 220 246.5t129 169.5q0 4 -41 -7.5t-102 -31.5q-92 -31 -148 -39.5t-166 -9.5q-116 -1 -158 6
t-109 38q-95 43 -168 120q-71 78 -77 72q-16 -17 -37.5 -165t-26.5 -266q-8 -168 7.5 -247t64.5 -128q28 -27 51.5 -35.5t70.5 -8.5q77 0 127 18q150 52 363 268zM1124 526q74 34 96.5 57t71.5 116q209 399 158 738q-21 150 -68 238t-134 139q-50 28 -86 35t-140 7
q-156 0 -245 -40.5t-212 -166.5q-186 -189 -304 -490q-73 -185 -52 -167q17 14 88 154q120 234 258 418t230 231q46 24 87 18.5t41 -34.5q0 -32 -54 -44q-50 -13 -105.5 -64t-141.5 -164q-107 -142 -180.5 -273.5t-168.5 -353.5q-44 -102 -53.5 -146.5t3 -77.5t62.5 -90
q199 -226 602 -122q144 34 247 82z" />
    <glyph glyph-name="O" unicode="&#xd2;" horiz-adv-x="1646" 
d="M1926 924q2 -17 -38.5 -49t-155.5 -106q-211 -134 -332 -198q-90 -50 -123.5 -79t-85.5 -105q-163 -241 -368.5 -442.5t-352.5 -265.5q-61 -26 -133.5 -36t-121.5 2q-111 26 -165 138q-49 100 -43.5 335t62.5 448q30 115 30 235q0 170 79 377t209.5 386.5t273.5 275.5
q83 55 163 78t190 23q172 0 278 -60t170 -193q89 -181 77 -420t-121 -487q-50 -115 -43 -122q8 -8 141 69t248 155q50 33 78.5 49.5t47 21t26 -2.5t10.5 -27zM773 10q91 93 220 246.5t129 169.5q0 4 -41 -7.5t-102 -31.5q-92 -31 -148 -39.5t-166 -9.5q-116 -1 -158 6
t-109 38q-95 43 -168 120q-71 78 -77 72q-16 -17 -37.5 -165t-26.5 -266q-8 -168 7.5 -247t64.5 -128q28 -27 51.5 -35.5t70.5 -8.5q77 0 127 18q150 52 363 268zM1124 526q74 34 96.5 57t71.5 116q209 399 158 738q-21 150 -68 238t-134 139q-50 28 -86 35t-140 7
q-156 0 -245 -40.5t-212 -166.5q-186 -189 -304 -490q-73 -185 -52 -167q17 14 88 154q120 234 258 418t230 231q46 24 87 18.5t41 -34.5q0 -32 -54 -44q-50 -13 -105.5 -64t-141.5 -164q-107 -142 -180.5 -273.5t-168.5 -353.5q-44 -102 -53.5 -146.5t3 -77.5t62.5 -90
q199 -226 602 -122q144 34 247 82z" />
    <glyph glyph-name="P" unicode="P" horiz-adv-x="1460" 
d="M1630 2177q30 -79 27.5 -276.5t-35.5 -347.5q-76 -341 -176 -564.5t-267 -423.5q-116 -139 -234 -215.5t-293 -126.5l-137 -40l-53 -160q-49 -154 -85 -214q-43 -69 -94.5 -80.5t-85.5 39.5q-17 26 -23 76.5t-8 188.5l-2 221l-47 39q-36 31 -73.5 98t-37.5 101
q0 28 23 27q31 -2 60 -44l10 -16q19 -36 37 -63t30.5 -39.5t17.5 -7.5q7 6 48 162q74 285 257 679q106 233 106 286q0 59 -25.5 219.5t-45.5 233.5q-37 129 -34 144q5 10 24 10q44 0 68.5 -63t58.5 -262q31 -175 37 -181q2 -2 9 8t18 28t22 40q71 129 183.5 284.5
t196.5 239.5q70 71 110 100.5t90 45.5q237 78 323 -146zM337 -91q26 61 56.5 155t30.5 114q0 11 -85 16q-84 6 -93 -15q-8 -20 -7 -156t10 -168q24 -86 88 54zM493 444q59 256 91.5 497t11.5 264q-6 6 -36 -52.5t-72 -155.5t-84 -203q-41 -105 -92 -299q-43 -167 -34 -196
t103 -30h72zM1542 1572q82 408 9 589q-58 140 -195 95q-63 -20 -138 -80q-183 -143 -447 -612l-79 -140l-9 -232q-14 -365 -110 -759q-26 -109 -23 -128q3 -24 38 -18q18 3 104 29q149 47 293.5 172t270.5 318q100 153 168 335t118 431z" />
    <glyph glyph-name="Q" unicode="Q" horiz-adv-x="1767" 
d="M1607 2361q64 -29 121.5 -95.5t83.5 -140.5q30 -87 30 -343t-30 -408q-56 -276 -181.5 -520.5t-338.5 -488.5l-122 -140l122 -17q202 -26 278 -147q26 -43 26 -85.5t-27 -42.5q-9 0 -26.5 19.5t-33.5 46.5q-42 76 -106.5 103t-196.5 22q-105 -4 -141.5 -15t-132.5 -69
q-112 -68 -166.5 -91t-142.5 -40q-158 -28 -340 -227q-78 -86 -95 -93q-12 -6 -22 12q-17 26 10 70.5t106 120.5q109 107 109 111q0 6 -20 6q-33 0 -114 46t-121 89q-114 114 -128 297q-17 205 90.5 479.5t292.5 497.5q60 74 74 104.5t21 108.5q14 152 128 320t311 328
q172 140 362 190.5t320 -8.5zM1129 307q671 677 639 1556q-7 198 -60.5 301t-163.5 133q-96 27 -212.5 2t-239.5 -98q-80 -47 -224.5 -188t-203.5 -228q-43 -64 -76 -147.5t-20 -95.5q2 -2 14.5 7.5t31.5 28t41 42.5q75 83 196.5 181t182.5 126q64 30 125.5 26t109 -29
t74.5 -74t22 -109q-3 -34 -10.5 -45.5t-26.5 -11.5q-30 0 -34 39q-7 63 -20.5 88.5t-47.5 44.5q-47 24 -99 14t-131 -59q-60 -37 -232 -201.5t-172 -184.5q0 -13 35.5 -47.5t88.5 -74.5q36 -27 41.5 -38t-7.5 -28q-14 -17 -25 -17t-45 17q-49 23 -98 71q-20 19 -39 30t-26 7
q-35 -21 -134 -169.5t-155 -263.5q-80 -165 -108.5 -273t-28.5 -241q0 -136 29.5 -204t115.5 -132q99 -73 193 -74.5t243 67.5q146 68 238 97q60 19 98.5 46t120.5 109z" />
    <glyph glyph-name="R" unicode="R" horiz-adv-x="1406" 
d="M1182 997q-120 -127 -217 -203t-228 -145l-133 -71l70 -36q83 -42 245.5 -104.5t259.5 -89.5q121 -33 266 -42q100 -6 124 -12.5t24 -27.5t-20 -26.5t-107 -8.5q-148 -6 -364 57t-458 183l-142 71l-91 -26q-89 -25 -139 -25q-19 0 -37.5 -6t-24.5 -14
q-16 -21 -57.5 -213.5t-55.5 -309.5q-33 -281 7 -335q27 -36 23 -60t-38 -24q-23 0 -36 12t-26 43q-33 77 -15.5 293.5t76.5 461.5l36 152l-38 23q-32 21 -35 60.5t22.5 77.5t69.5 56q34 14 48 42.5t14 83.5q0 40 48 171q37 97 165 509q98 324 145 469q23 77 10 78
q-11 0 -36 -60q-35 -88 -84 -30q-14 19 9 65.5t109 167.5q56 79 88.5 105.5t52.5 9.5q12 -11 16.5 -19.5t-0.5 -38.5t-16.5 -67.5t-39.5 -126.5q-58 -179 -121.5 -392.5t-59.5 -218.5q6 -2 95 131q90 133 294 339q124 125 183.5 174.5t124.5 81.5q285 139 405 -65
q35 -59 33 -202.5t-40 -253.5q-122 -367 -404 -664zM391 594q4 4 -5 12.5t-28 17.5t-40 15q-37 11 -59.5 -0.5t-22.5 -40.5q0 -23 11.5 -26.5t62.5 4.5q72 9 81 18zM520 647q29 -2 181 76q286 147 516 431t306 585q36 140 27 242t-62 149q-36 32 -111 26.5t-155 -45.5
q-169 -86 -417 -377t-387 -569q-36 -70 -85.5 -225t-49.5 -197q0 -8 8.5 -14t18.5 -6q28 0 104 -37q80 -39 106 -39z" />
    <glyph glyph-name="S" unicode="S" horiz-adv-x="1032" 
d="M1111 2337q130 -68 154 -186t-59 -278q-51 -98 -174.5 -253t-150.5 -155q-13 0 -20.5 7t-6.5 20q0 20 30 64.5t129 169.5q112 143 154 260.5t6 187.5q-43 84 -150 107t-229 -24q-135 -53 -306 -193t-250 -261q-52 -80 -82.5 -137t-48 -114t-18 -102t16 -101t46.5 -110.5
t80 -130.5q46 -70 168.5 -202t208.5 -204l72 -60l160 137q149 128 206 168t79 31q45 -17 -11 -72q-22 -23 -64 -55q-80 -62 -201 -168l-103 -93l89 -94q83 -86 112 -140.5t29 -123.5q0 -46 -11 -69.5t-55 -67.5q-100 -100 -293.5 -180t-362.5 -90q-86 -6 -111 -2t-48 27
q-34 34 -34 57q0 60 83.5 170t294.5 327l173 180l-217 219q-132 133 -189 202.5t-101 149.5q-52 95 -75.5 154.5t-24.5 124.5t20.5 125.5t70.5 158.5q49 96 88.5 150t117.5 131q237 236 450 325t358 13zM690 519q-17 0 -227.5 -214.5t-257.5 -280.5q-53 -73 -49 -99t67 -26
q68 0 190 31q113 29 233.5 85t187.5 110q43 35 54.5 55t11.5 57q0 56 -25 96q-30 44 -100.5 115t-84.5 71z" />
    <glyph glyph-name="T" unicode="T" horiz-adv-x="1167" 
d="M2491 2017q-61 34 -99.5 40t-185.5 5q-118 0 -201.5 -8.5t-203.5 -33.5q-25 -5 -69 -14q-177 -35 -218 -66t-115 -186q-19 -38 -29 -60q-193 -398 -604 -1132q-90 -162 -124 -249q-40 -109 -140 -303t-135 -231q-30 -32 -63 -42t-50 7q-23 23 27 130t211 378
q91 151 136 282t62 288q17 165 -13.5 296.5t-118.5 268.5q-69 107 -157.5 147.5t-250.5 37.5q-125 -4 -138 18q-16 25 8.5 41.5t89.5 24.5q79 11 334 91q275 86 622 177q257 68 302 85q71 26 97 67q15 23 46 116l4 12q14 43 25.5 60t25.5 14q28 -5 29 -50t-25 -104
q-22 -48 -20 -56q4 -16 70 -4q28 4 155 31q169 34 361 45.5t276 -8.5q95 -22 163 -80q54 -45 33 -67q-5 -5 -13 -8q-18 -7 -104 40zM994 1144q161 297 277.5 530t107.5 240q-16 15 -506.5 -122.5t-490.5 -156.5q0 -14 40 -23q45 -11 115.5 -80.5t113.5 -145.5
q72 -128 96.5 -222t24.5 -243q0 -122 1 -131q5 -27 28 4q22 31 162 292q16 31 31 58z" />
    <glyph glyph-name="U" unicode="U" horiz-adv-x="1691" 
d="M1981 2301q82 42 121 15t31 -120q-11 -117 -103 -292t-243 -363q-46 -58 -69 -101t-52.5 -124t-103.5 -309q-123 -380 -162 -535t-39 -265q0 -87 17.5 -120.5t67.5 -43.5q13 -2 23.5 -13.5t12.5 -26.5q3 -22 -4.5 -28.5t-36.5 -6.5q-45 0 -94 40q-91 77 -70 252
q11 96 68.5 312t131.5 435q85 253 85 261q0 3 -96.5 -90.5t-271.5 -265.5q-295 -291 -423 -398.5t-247 -164.5q-64 -30 -104 -39t-113 -9q-99 0 -157.5 26.5t-94.5 88.5q-65 110 -44.5 368.5t117.5 555.5q31 94 174.5 430.5t164.5 363.5q16 20 36 20q29 0 31 -32t-22 -82
q-34 -66 -101 -220q-181 -405 -251 -655t-70 -493q0 -102 6 -137.5t30 -71.5q69 -103 218 -83.5t327 154.5q92 69 374.5 341.5t432.5 435.5l161 176l107 330q83 260 130.5 357.5t104.5 126.5zM1924 1875q93 158 128 288q21 83 -5 84q-21 0 -57.5 -45t-62.5 -101
q-26 -59 -79 -222.5t-52 -183.5q0 -17 40 40q35 50 88 140z" />
    <glyph glyph-name="U" unicode="&#xdc;" horiz-adv-x="1691" 
d="M1981 2301q82 42 121 15t31 -120q-11 -117 -103 -292t-243 -363q-46 -58 -69 -101t-52.5 -124t-103.5 -309q-123 -380 -162 -535t-39 -265q0 -87 17.5 -120.5t67.5 -43.5q13 -2 23.5 -13.5t12.5 -26.5q3 -22 -4.5 -28.5t-36.5 -6.5q-45 0 -94 40q-91 77 -70 252
q11 96 68.5 312t131.5 435q85 253 85 261q0 3 -96.5 -90.5t-271.5 -265.5q-295 -291 -423 -398.5t-247 -164.5q-64 -30 -104 -39t-113 -9q-99 0 -157.5 26.5t-94.5 88.5q-65 110 -44.5 368.5t117.5 555.5q31 94 174.5 430.5t164.5 363.5q16 20 36 20q29 0 31 -32t-22 -82
q-34 -66 -101 -220q-181 -405 -251 -655t-70 -493q0 -102 6 -137.5t30 -71.5q69 -103 218 -83.5t327 154.5q92 69 374.5 341.5t432.5 435.5l161 176l107 330q83 260 130.5 357.5t104.5 126.5zM1924 1875q93 158 128 288q21 83 -5 84q-21 0 -57.5 -45t-62.5 -101
q-26 -59 -79 -222.5t-52 -183.5q0 -17 40 40q35 50 88 140z" />
    <glyph glyph-name="U" unicode="&#xdb;" horiz-adv-x="1691" 
d="M1981 2301q82 42 121 15t31 -120q-11 -117 -103 -292t-243 -363q-46 -58 -69 -101t-52.5 -124t-103.5 -309q-123 -380 -162 -535t-39 -265q0 -87 17.5 -120.5t67.5 -43.5q13 -2 23.5 -13.5t12.5 -26.5q3 -22 -4.5 -28.5t-36.5 -6.5q-45 0 -94 40q-91 77 -70 252
q11 96 68.5 312t131.5 435q85 253 85 261q0 3 -96.5 -90.5t-271.5 -265.5q-295 -291 -423 -398.5t-247 -164.5q-64 -30 -104 -39t-113 -9q-99 0 -157.5 26.5t-94.5 88.5q-65 110 -44.5 368.5t117.5 555.5q31 94 174.5 430.5t164.5 363.5q16 20 36 20q29 0 31 -32t-22 -82
q-34 -66 -101 -220q-181 -405 -251 -655t-70 -493q0 -102 6 -137.5t30 -71.5q69 -103 218 -83.5t327 154.5q92 69 374.5 341.5t432.5 435.5l161 176l107 330q83 260 130.5 357.5t104.5 126.5zM1924 1875q93 158 128 288q21 83 -5 84q-21 0 -57.5 -45t-62.5 -101
q-26 -59 -79 -222.5t-52 -183.5q0 -17 40 40q35 50 88 140z" />
    <glyph glyph-name="U" unicode="&#xda;" horiz-adv-x="1691" 
d="M1981 2301q82 42 121 15t31 -120q-11 -117 -103 -292t-243 -363q-46 -58 -69 -101t-52.5 -124t-103.5 -309q-123 -380 -162 -535t-39 -265q0 -87 17.5 -120.5t67.5 -43.5q13 -2 23.5 -13.5t12.5 -26.5q3 -22 -4.5 -28.5t-36.5 -6.5q-45 0 -94 40q-91 77 -70 252
q11 96 68.5 312t131.5 435q85 253 85 261q0 3 -96.5 -90.5t-271.5 -265.5q-295 -291 -423 -398.5t-247 -164.5q-64 -30 -104 -39t-113 -9q-99 0 -157.5 26.5t-94.5 88.5q-65 110 -44.5 368.5t117.5 555.5q31 94 174.5 430.5t164.5 363.5q16 20 36 20q29 0 31 -32t-22 -82
q-34 -66 -101 -220q-181 -405 -251 -655t-70 -493q0 -102 6 -137.5t30 -71.5q69 -103 218 -83.5t327 154.5q92 69 374.5 341.5t432.5 435.5l161 176l107 330q83 260 130.5 357.5t104.5 126.5zM1924 1875q93 158 128 288q21 83 -5 84q-21 0 -57.5 -45t-62.5 -101
q-26 -59 -79 -222.5t-52 -183.5q0 -17 40 40q35 50 88 140z" />
    <glyph glyph-name="U" unicode="&#xd9;" horiz-adv-x="1691" 
d="M1981 2301q82 42 121 15t31 -120q-11 -117 -103 -292t-243 -363q-46 -58 -69 -101t-52.5 -124t-103.5 -309q-123 -380 -162 -535t-39 -265q0 -87 17.5 -120.5t67.5 -43.5q13 -2 23.5 -13.5t12.5 -26.5q3 -22 -4.5 -28.5t-36.5 -6.5q-45 0 -94 40q-91 77 -70 252
q11 96 68.5 312t131.5 435q85 253 85 261q0 3 -96.5 -90.5t-271.5 -265.5q-295 -291 -423 -398.5t-247 -164.5q-64 -30 -104 -39t-113 -9q-99 0 -157.5 26.5t-94.5 88.5q-65 110 -44.5 368.5t117.5 555.5q31 94 174.5 430.5t164.5 363.5q16 20 36 20q29 0 31 -32t-22 -82
q-34 -66 -101 -220q-181 -405 -251 -655t-70 -493q0 -102 6 -137.5t30 -71.5q69 -103 218 -83.5t327 154.5q92 69 374.5 341.5t432.5 435.5l161 176l107 330q83 260 130.5 357.5t104.5 126.5zM1924 1875q93 158 128 288q21 83 -5 84q-21 0 -57.5 -45t-62.5 -101
q-26 -59 -79 -222.5t-52 -183.5q0 -17 40 40q35 50 88 140z" />
    <glyph glyph-name="V" unicode="V" horiz-adv-x="1331" 
d="M1999 1882q2 -9 -40 -60t-105 -116q-229 -235 -410 -494t-456 -746q-282 -497 -420 -692t-234 -231q-51 -20 -115.5 -14.5t-97.5 31.5q-77 61 -101.5 219.5t-3.5 464.5q23 340 67.5 584.5t167.5 705.5q163 619 222 748q37 83 67 62l6 -5q18 -19 -22 -140
q-79 -241 -199 -700t-159 -669q-54 -295 -74.5 -594t3.5 -441q17 -106 47.5 -148t89.5 -42q41 0 74.5 13.5t80.5 59t96 111.5t127.5 192t167.5 279t224 392q219 387 401 640.5t398 472.5q131 134 168 143q23 6 30 -26z" />
    <glyph glyph-name="W" unicode="W" horiz-adv-x="2043" 
d="M2128 2294q63 -33 80 -104t10 -268q-21 -605 -307 -1298q-114 -277 -208 -442.5t-207 -287.5q-201 -217 -395 -144q-84 31 -161.5 125.5t-121.5 222.5q-30 86 -36 199.5t14 220.5q16 82 10 88q-2 3 -26 -39t-63 -113q-110 -210 -211 -344t-178 -174t-153.5 -9t-122.5 122
q-41 81 -46 244.5t30 333.5q47 235 165 547t286 649q77 155 119.5 209.5t75.5 41.5q21 -9 20.5 -37t-21.5 -36q-19 -7 -128.5 -227.5t-200.5 -433.5q-199 -464 -251 -827.5t62 -483.5q53 -57 122 -23t166 166q90 122 273 457.5t267 532.5q129 305 203 301q14 -1 26 -13
q17 -17 -5.5 -73t-113.5 -222q-117 -212 -183 -452.5t-56 -418.5q6 -110 51.5 -213t121.5 -179q50 -51 73 -61t89 -10q57 0 85.5 8.5t66.5 35.5q91 67 190 205.5t182 318.5q202 431 313 854.5t111 761.5q0 97 -6 132t-27 61q-27 36 -75.5 41t-85.5 -23q-43 -32 -76 -16
q-27 12 -14 41q5 11 16 22q42 42 118 51t133 -20z" />
    <glyph glyph-name="X" unicode="X" horiz-adv-x="1898" 
d="M2198 2117q43 -17 -2 -64q-22 -25 -72 -64q-181 -143 -397.5 -349.5t-421.5 -432.5q-133 -146 -308 -357t-189 -242q-10 -20 2.5 -56.5t60.5 -129.5q109 -210 226 -324.5t223 -114.5q69 0 135 31q89 44 215.5 182t247.5 325q89 138 119 105q5 -6 9 -16
q14 -36 -114 -216.5t-257 -307.5q-183 -181 -345.5 -182t-327.5 178q-63 69 -158 222.5t-95 187.5q0 25 -22 5q-32 -29 -174 -224q-241 -330 -347.5 -515t-119.5 -300q-12 -88 -38 -93q-25 -4 -37 35q-28 112 104 357t441 657l143 190l-60 151q-79 192 -167 503.5
t-141 589.5q-29 153 -31 272.5t24 140.5q48 42 55 -54q2 -27 0 -66q-8 -183 137 -740q44 -171 119.5 -401t104.5 -284q12 -23 19 -23q11 1 51 51q7 9 25 32q99 128 288 343.5t337 369.5q232 242 467 442t271 186z" />
    <glyph glyph-name="Y" unicode="Y" horiz-adv-x="1515" 
d="M1743 1258q23 -23 -9.5 -57.5t-165.5 -124.5l-1 -1h-1l-1 -1l-1 -1l-1 -1h-1l-1 -1l-1 -1h-1l-1 -1l-1 -1h-1l-1 -1l-1 -1l-1 -1h-1l-1 -1l-1 -1h-1l-1 -1l-1 -1h-1l-2 -1l-1 -1l-1 -1h-1l-1 -1l-1 -1h-1l-1 -1l-1 -1l-1 -1q-205 -140 -253 -184q-56 -49 -96 -123
q-12 -22 -39 -76l-12 -24q-91 -182 -163 -307.5t-252 -414.5q-174 -279 -261.5 -398t-152.5 -166q-57 -42 -119.5 -53t-96.5 15q-76 57 26.5 301t328.5 546q126 166 244.5 293.5t260.5 247.5l1 1l1 1l1 1h1l1 1l1 1l1 1l1 1l1 1l1 1q144 121 179 161q42 47 78 133
q8 19 26 67q4 9 6 14q64 161 120 333q33 104 84.5 284t87.5 319t31 139q-15 0 -862 -698q-183 -151 -271.5 -216t-144.5 -91t-120 -31q-62 -4 -84.5 1t-46.5 28q-53 50 -29.5 202.5t137.5 494.5q100 302 166 430t122 128q19 0 27 -13.5t2 -32t-23 -33.5q-65 -53 -207 -474
q-161 -478 -152 -590q3 -42 12 -51t51 -13q123 -9 414 239q325 276 670 554t380 291q31 12 56 4t25 -30t-37 -137q-35 -104 -118 -407q-87 -317 -156 -501q-76 -213 -76 -219q0 -3 16.5 6t46 28.5t63.5 43.5q150 107 223 148.5t87 27.5zM474 -318q197 303 391 634t194 362
q0 25 -122 -86q-85 -77 -183 -180q-147 -153 -289.5 -351.5t-231.5 -371t-89 -255.5q0 -46 14 -52t61 18q45 23 119.5 105.5t135.5 176.5z" />
    <glyph glyph-name="Y" unicode="&#x178;" horiz-adv-x="1515" 
d="M1743 1258q23 -23 -9.5 -57.5t-165.5 -124.5l-1 -1h-1l-1 -1l-1 -1l-1 -1h-1l-1 -1l-1 -1h-1l-1 -1l-1 -1h-1l-1 -1l-1 -1l-1 -1h-1l-1 -1l-1 -1h-1l-1 -1l-1 -1h-1l-2 -1l-1 -1l-1 -1h-1l-1 -1l-1 -1h-1l-1 -1l-1 -1l-1 -1q-205 -140 -253 -184q-56 -49 -96 -123
q-12 -22 -39 -76l-12 -24q-91 -182 -163 -307.5t-252 -414.5q-174 -279 -261.5 -398t-152.5 -166q-57 -42 -119.5 -53t-96.5 15q-76 57 26.5 301t328.5 546q126 166 244.5 293.5t260.5 247.5l1 1l1 1l1 1h1l1 1l1 1l1 1l1 1l1 1l1 1q144 121 179 161q42 47 78 133
q8 19 26 67q4 9 6 14q64 161 120 333q33 104 84.5 284t87.5 319t31 139q-15 0 -862 -698q-183 -151 -271.5 -216t-144.5 -91t-120 -31q-62 -4 -84.5 1t-46.5 28q-53 50 -29.5 202.5t137.5 494.5q100 302 166 430t122 128q19 0 27 -13.5t2 -32t-23 -33.5q-65 -53 -207 -474
q-161 -478 -152 -590q3 -42 12 -51t51 -13q123 -9 414 239q325 276 670 554t380 291q31 12 56 4t25 -30t-37 -137q-35 -104 -118 -407q-87 -317 -156 -501q-76 -213 -76 -219q0 -3 16.5 6t46 28.5t63.5 43.5q150 107 223 148.5t87 27.5zM474 -318q197 303 391 634t194 362
q0 25 -122 -86q-85 -77 -183 -180q-147 -153 -289.5 -351.5t-231.5 -371t-89 -255.5q0 -46 14 -52t61 18q45 23 119.5 105.5t135.5 176.5z" />
    <glyph glyph-name="Y" unicode="&#xdd;" horiz-adv-x="1515" 
d="M1743 1258q23 -23 -9.5 -57.5t-165.5 -124.5l-1 -1h-1l-1 -1l-1 -1l-1 -1h-1l-1 -1l-1 -1h-1l-1 -1l-1 -1h-1l-1 -1l-1 -1l-1 -1h-1l-1 -1l-1 -1h-1l-1 -1l-1 -1h-1l-2 -1l-1 -1l-1 -1h-1l-1 -1l-1 -1h-1l-1 -1l-1 -1l-1 -1q-205 -140 -253 -184q-56 -49 -96 -123
q-12 -22 -39 -76l-12 -24q-91 -182 -163 -307.5t-252 -414.5q-174 -279 -261.5 -398t-152.5 -166q-57 -42 -119.5 -53t-96.5 15q-76 57 26.5 301t328.5 546q126 166 244.5 293.5t260.5 247.5l1 1l1 1l1 1h1l1 1l1 1l1 1l1 1l1 1l1 1q144 121 179 161q42 47 78 133
q8 19 26 67q4 9 6 14q64 161 120 333q33 104 84.5 284t87.5 319t31 139q-15 0 -862 -698q-183 -151 -271.5 -216t-144.5 -91t-120 -31q-62 -4 -84.5 1t-46.5 28q-53 50 -29.5 202.5t137.5 494.5q100 302 166 430t122 128q19 0 27 -13.5t2 -32t-23 -33.5q-65 -53 -207 -474
q-161 -478 -152 -590q3 -42 12 -51t51 -13q123 -9 414 239q325 276 670 554t380 291q31 12 56 4t25 -30t-37 -137q-35 -104 -118 -407q-87 -317 -156 -501q-76 -213 -76 -219q0 -3 16.5 6t46 28.5t63.5 43.5q150 107 223 148.5t87 27.5zM474 -318q197 303 391 634t194 362
q0 25 -122 -86q-85 -77 -183 -180q-147 -153 -289.5 -351.5t-231.5 -371t-89 -255.5q0 -46 14 -52t61 18q45 23 119.5 105.5t135.5 176.5z" />
    <glyph glyph-name="Z" unicode="Z" horiz-adv-x="2220" 
d="M2235 360q94 -36 158.5 -83.5t64.5 -81.5q0 -40 -46 -21q-27 11 -77 45q-90 60 -180 83t-258 30q-349 14 -766 -91q-156 -39 -211 -64.5t-145 -100.5q-232 -193 -448.5 -303.5t-298.5 -77.5q-34 13 -16.5 60.5t76.5 102.5q65 62 264.5 167t377.5 172l139 53l248 248
q251 251 515.5 576t366.5 508q51 93 78 191.5t17 158.5q-17 98 -101 138t-251 28q-643 -46 -1319 -530q-89 -62 -113 -36q-7 7 -7 20q0 36 192.5 164t411.5 238q247 124 581.5 189t496.5 21q61 -17 112 -70t67 -117q39 -140 -40.5 -322.5t-306.5 -474.5q-307 -395 -591 -688
q-150 -154 -157 -180q-1 -3 2 -2q160 50 394 78t438 21q145 -4 202 -12.5t130 -36.5zM276 -163q40 21 88 49t91.5 55t79.5 51.5t55.5 41t16.5 19.5q-10 10 -132 -51t-240 -132.5t-118 -86.5q0 -27 136 42q11 6 23 12z" />
    <glyph glyph-name="bracketleft" unicode="[" horiz-adv-x="874" 
d="M851 1643q19 -37 18.5 -54.5t-20.5 -61.5q-27 -62 -58 -62q-11 0 -16 2t-7 11.5t-1 24.5t5 47l11 85h-249l-24 -73q-134 -413 -258 -847.5t-147 -566.5q-14 -76 -20 -152.5t-2.5 -125t15.5 -48.5q24 0 105 22q97 24 178 32q67 9 78 5t7 -31q-4 -24 -31 -35.5t-137 -34.5
q-151 -32 -198 -33t-70 26q-27 30 -25.5 161t30.5 273q35 172 165 616t237 758l41 124l139 4q133 5 172 -6t62 -60z" />
    <glyph glyph-name="bracketright" unicode="]" horiz-adv-x="841" 
d="M834 1639q9 -96 -31.5 -248t-164.5 -493q-129 -354 -165.5 -490.5t-36.5 -265.5q0 -119 -14.5 -165t-60.5 -69q-50 -26 -127 -32t-127 13q-60 23 -83 44t-19 50q3 21 23.5 32t42.5 5t28 -27q8 -31 68.5 -40.5t118 5.5t58.5 46q6 218 30.5 340.5t104.5 337.5
q176 471 239 707.5t28 292.5q-10 14 -26.5 10t-70.5 -32q-111 -59 -131 -21q-4 7 -4 17q0 22 93.5 70.5t136.5 48.5q46 0 64.5 -28t25.5 -108z" />
    <glyph glyph-name="a" unicode="a" horiz-adv-x="739" 
d="M974 618l6 -2q7 -1 10.5 -6.5t1.5 -16.5q-3 -13 -33.5 -43t-100.5 -78.5t-157 -93.5q-90 -47 -149.5 -57.5t-109.5 12.5q-83 38 -83 133v48l-111 -79q-73 -51 -103.5 -64.5t-69.5 -10.5q-28 2 -45 16t-21 35t-1.5 43t9.5 45q20 64 79.5 123.5t124.5 78.5q41 12 66 11
t69 -17l69 -25l77 60q97 76 117 39q4 -8 4 -20q0 -21 -74 -95q-64 -61 -93 -128.5t-4 -97.5q36 -45 130.5 -14t278.5 149q31 20 57.5 34t40 18.5t15.5 2.5zM336 605q11 18 -23 24q-47 9 -89 -13q-58 -31 -111 -102q-47 -63 -29 -77q3 -2 9 -2q16 0 123 78q43 29 79.5 57
t40.5 35z" />
    <glyph glyph-name="a" unicode="&#xe5;" horiz-adv-x="739" 
d="M974 618l6 -2q7 -1 10.5 -6.5t1.5 -16.5q-3 -13 -33.5 -43t-100.5 -78.5t-157 -93.5q-90 -47 -149.5 -57.5t-109.5 12.5q-83 38 -83 133v48l-111 -79q-73 -51 -103.5 -64.5t-69.5 -10.5q-28 2 -45 16t-21 35t-1.5 43t9.5 45q20 64 79.5 123.5t124.5 78.5q41 12 66 11
t69 -17l69 -25l77 60q97 76 117 39q4 -8 4 -20q0 -21 -74 -95q-64 -61 -93 -128.5t-4 -97.5q36 -45 130.5 -14t278.5 149q31 20 57.5 34t40 18.5t15.5 2.5zM336 605q11 18 -23 24q-47 9 -89 -13q-58 -31 -111 -102q-47 -63 -29 -77q3 -2 9 -2q16 0 123 78q43 29 79.5 57
t40.5 35z" />
    <glyph glyph-name="a" unicode="&#xe4;" horiz-adv-x="739" 
d="M974 618l6 -2q7 -1 10.5 -6.5t1.5 -16.5q-3 -13 -33.5 -43t-100.5 -78.5t-157 -93.5q-90 -47 -149.5 -57.5t-109.5 12.5q-83 38 -83 133v48l-111 -79q-73 -51 -103.5 -64.5t-69.5 -10.5q-28 2 -45 16t-21 35t-1.5 43t9.5 45q20 64 79.5 123.5t124.5 78.5q41 12 66 11
t69 -17l69 -25l77 60q97 76 117 39q4 -8 4 -20q0 -21 -74 -95q-64 -61 -93 -128.5t-4 -97.5q36 -45 130.5 -14t278.5 149q31 20 57.5 34t40 18.5t15.5 2.5zM336 605q11 18 -23 24q-47 9 -89 -13q-58 -31 -111 -102q-47 -63 -29 -77q3 -2 9 -2q16 0 123 78q43 29 79.5 57
t40.5 35z" />
    <glyph glyph-name="a" unicode="&#xe3;" horiz-adv-x="739" 
d="M974 618l6 -2q7 -1 10.5 -6.5t1.5 -16.5q-3 -13 -33.5 -43t-100.5 -78.5t-157 -93.5q-90 -47 -149.5 -57.5t-109.5 12.5q-83 38 -83 133v48l-111 -79q-73 -51 -103.5 -64.5t-69.5 -10.5q-28 2 -45 16t-21 35t-1.5 43t9.5 45q20 64 79.5 123.5t124.5 78.5q41 12 66 11
t69 -17l69 -25l77 60q97 76 117 39q4 -8 4 -20q0 -21 -74 -95q-64 -61 -93 -128.5t-4 -97.5q36 -45 130.5 -14t278.5 149q31 20 57.5 34t40 18.5t15.5 2.5zM336 605q11 18 -23 24q-47 9 -89 -13q-58 -31 -111 -102q-47 -63 -29 -77q3 -2 9 -2q16 0 123 78q43 29 79.5 57
t40.5 35z" />
    <glyph glyph-name="a" unicode="&#xe2;" horiz-adv-x="739" 
d="M974 618l6 -2q7 -1 10.5 -6.5t1.5 -16.5q-3 -13 -33.5 -43t-100.5 -78.5t-157 -93.5q-90 -47 -149.5 -57.5t-109.5 12.5q-83 38 -83 133v48l-111 -79q-73 -51 -103.5 -64.5t-69.5 -10.5q-28 2 -45 16t-21 35t-1.5 43t9.5 45q20 64 79.5 123.5t124.5 78.5q41 12 66 11
t69 -17l69 -25l77 60q97 76 117 39q4 -8 4 -20q0 -21 -74 -95q-64 -61 -93 -128.5t-4 -97.5q36 -45 130.5 -14t278.5 149q31 20 57.5 34t40 18.5t15.5 2.5zM336 605q11 18 -23 24q-47 9 -89 -13q-58 -31 -111 -102q-47 -63 -29 -77q3 -2 9 -2q16 0 123 78q43 29 79.5 57
t40.5 35z" />
    <glyph glyph-name="a" unicode="&#xe1;" horiz-adv-x="739" 
d="M974 618l6 -2q7 -1 10.5 -6.5t1.5 -16.5q-3 -13 -33.5 -43t-100.5 -78.5t-157 -93.5q-90 -47 -149.5 -57.5t-109.5 12.5q-83 38 -83 133v48l-111 -79q-73 -51 -103.5 -64.5t-69.5 -10.5q-28 2 -45 16t-21 35t-1.5 43t9.5 45q20 64 79.5 123.5t124.5 78.5q41 12 66 11
t69 -17l69 -25l77 60q97 76 117 39q4 -8 4 -20q0 -21 -74 -95q-64 -61 -93 -128.5t-4 -97.5q36 -45 130.5 -14t278.5 149q31 20 57.5 34t40 18.5t15.5 2.5zM336 605q11 18 -23 24q-47 9 -89 -13q-58 -31 -111 -102q-47 -63 -29 -77q3 -2 9 -2q16 0 123 78q43 29 79.5 57
t40.5 35z" />
    <glyph glyph-name="a" unicode="&#xe0;" horiz-adv-x="739" 
d="M974 618l6 -2q7 -1 10.5 -6.5t1.5 -16.5q-3 -13 -33.5 -43t-100.5 -78.5t-157 -93.5q-90 -47 -149.5 -57.5t-109.5 12.5q-83 38 -83 133v48l-111 -79q-73 -51 -103.5 -64.5t-69.5 -10.5q-28 2 -45 16t-21 35t-1.5 43t9.5 45q20 64 79.5 123.5t124.5 78.5q41 12 66 11
t69 -17l69 -25l77 60q97 76 117 39q4 -8 4 -20q0 -21 -74 -95q-64 -61 -93 -128.5t-4 -97.5q36 -45 130.5 -14t278.5 149q31 20 57.5 34t40 18.5t15.5 2.5zM336 605q11 18 -23 24q-47 9 -89 -13q-58 -31 -111 -102q-47 -63 -29 -77q3 -2 9 -2q16 0 123 78q43 29 79.5 57
t40.5 35z" />
    <glyph glyph-name="b" unicode="b" horiz-adv-x="702" 
d="M920 679q5 -4 0.5 -22.5t-19.5 -29.5q-11 -8 -121 -55t-138 -62q-78 -42 -96 -62.5t-44 -95.5q-112 -341 -265 -341q-53 0 -84 31q-27 27 -29.5 71.5t21.5 76.5t21 41.5t-39 6.5q-49 -3 -66 42.5t-10 164.5q8 143 33 207q16 43 17.5 66.5t-8.5 45.5q-10 24 -6.5 34.5
t27.5 27.5q38 27 79 136q137 363 272 671q37 84 59.5 117t49.5 45q27 11 42.5 9.5t38.5 -16.5q94 -60 5 -283.5t-353 -590.5q-60 -83 -111 -189.5t-37 -120.5q1 -1 10.5 8.5t24 27.5t30.5 39q47 65 118.5 116.5t113.5 52.5q45 1 73 -30.5t36 -79.5t6.5 -95t-11.5 -86
q16 10 46.5 25t53.5 26l22 10q209 105 238 61zM545 1627q-34 -76 -112.5 -272.5t-78.5 -204.5q0 -20 28 20l46 69q95 146 137 235.5t49 156.5q9 89 -12 84q-20 -7 -57 -88zM314 140q32 41 69 119t29 86q-9 9 -82.5 -60t-99.5 -111q-35 -56 -13 -79q18 -21 57 6q21 14 40 39z
M489 646q3 50 0.5 78t-15.5 37t-28.5 5t-39.5 -19q-72 -46 -145.5 -152t-93.5 -193q-7 -35 -3 -50t25 -32q25 -20 39 -15t66 52q106 95 127 113q40 34 50.5 63.5t17.5 112.5z" />
    <glyph glyph-name="c" unicode="c" horiz-adv-x="471" 
d="M665 660q20 -18 -37 -69q-33 -29 -152 -112.5t-168 -106.5q-134 -60 -209 6q-52 45 -41 123q16 111 77 207q66 112 130 155t105 2q30 -30 13.5 -119.5t-56.5 -110.5q-23 -12 -38 -4t-15 29.5t14 51.5q39 74 21 79q-17 6 -64 -60l-15 -22q-77 -120 -92 -193.5t36 -89.5
q34 -12 95 17t205 125q109 73 143 89.5t48 2.5z" />
    <glyph glyph-name="c" unicode="&#xe7;" horiz-adv-x="471" 
d="M665 660q20 -18 -37 -69q-33 -29 -152 -112.5t-168 -106.5q-134 -60 -209 6q-52 45 -41 123q16 111 77 207q66 112 130 155t105 2q30 -30 13.5 -119.5t-56.5 -110.5q-23 -12 -38 -4t-15 29.5t14 51.5q39 74 21 79q-17 6 -64 -60l-15 -22q-77 -120 -92 -193.5t36 -89.5
q34 -12 95 17t205 125q109 73 143 89.5t48 2.5z" />
    <glyph glyph-name="d" unicode="d" horiz-adv-x="563" 
d="M883 1553q24 -52 -69.5 -265.5t-239.5 -418.5q-80 -112 -117.5 -192.5t-89.5 -254.5q-67 -222 -76 -388t42 -222q25 -31 25 -62q0 -34 -28 -33q-33 0 -63 43q-35 49 -50 130.5t-6 174.5q7 74 36 218t49 201q-14 -20 -75 -82q-64 -65 -105 -77.5t-76 22.5q-21 21 -21 65
t17 96t46.5 107t64.5 99.5t74 73.5t72 29q43 0 74 -22q22 -16 51 30.5t158 304.5q70 141 136 262.5t83 142.5q29 34 53 38.5t35 -20.5zM280 605q79 106 53 130q-5 2 -11.5 3t-19.5 -5t-28 -16t-36 -30.5t-43 -48.5q-50 -62 -84 -148q-31 -76 -4 -76q12 0 60 50
q46 47 113 141z" />
    <glyph glyph-name="e" unicode="e" horiz-adv-x="450" 
d="M626 645q10 -25 -18.5 -53t-157.5 -119q-146 -104 -223 -132t-143 -1q-60 24 -63 114.5t52 206.5q35 74 70.5 119.5t84.5 61.5q51 16 82.5 -17.5t22.5 -78.5q-9 -48 -67 -110.5t-100 -62.5q-33 0 -43 -10.5t-20 -59.5q-9 -47 11 -77q16 -20 29 -21.5t55 10.5
q57 16 221 135q63 46 99 70.5t60 35t33 7t15 -17.5zM197 720q-36 -52 -22 -59q10 -3 35 20q38 36 38 57q0 27 -18 18q-15 -7 -33 -36z" />
    <glyph glyph-name="e" unicode="&#xeb;" horiz-adv-x="450" 
d="M626 645q10 -25 -18.5 -53t-157.5 -119q-146 -104 -223 -132t-143 -1q-60 24 -63 114.5t52 206.5q35 74 70.5 119.5t84.5 61.5q51 16 82.5 -17.5t22.5 -78.5q-9 -48 -67 -110.5t-100 -62.5q-33 0 -43 -10.5t-20 -59.5q-9 -47 11 -77q16 -20 29 -21.5t55 10.5
q57 16 221 135q63 46 99 70.5t60 35t33 7t15 -17.5zM197 720q-36 -52 -22 -59q10 -3 35 20q38 36 38 57q0 27 -18 18q-15 -7 -33 -36z" />
    <glyph glyph-name="e" unicode="&#xea;" horiz-adv-x="450" 
d="M626 645q10 -25 -18.5 -53t-157.5 -119q-146 -104 -223 -132t-143 -1q-60 24 -63 114.5t52 206.5q35 74 70.5 119.5t84.5 61.5q51 16 82.5 -17.5t22.5 -78.5q-9 -48 -67 -110.5t-100 -62.5q-33 0 -43 -10.5t-20 -59.5q-9 -47 11 -77q16 -20 29 -21.5t55 10.5
q57 16 221 135q63 46 99 70.5t60 35t33 7t15 -17.5zM197 720q-36 -52 -22 -59q10 -3 35 20q38 36 38 57q0 27 -18 18q-15 -7 -33 -36z" />
    <glyph glyph-name="e" unicode="&#xe9;" horiz-adv-x="450" 
d="M626 645q10 -25 -18.5 -53t-157.5 -119q-146 -104 -223 -132t-143 -1q-60 24 -63 114.5t52 206.5q35 74 70.5 119.5t84.5 61.5q51 16 82.5 -17.5t22.5 -78.5q-9 -48 -67 -110.5t-100 -62.5q-33 0 -43 -10.5t-20 -59.5q-9 -47 11 -77q16 -20 29 -21.5t55 10.5
q57 16 221 135q63 46 99 70.5t60 35t33 7t15 -17.5zM197 720q-36 -52 -22 -59q10 -3 35 20q38 36 38 57q0 27 -18 18q-15 -7 -33 -36z" />
    <glyph glyph-name="e" unicode="&#xe8;" horiz-adv-x="450" 
d="M626 645q10 -25 -18.5 -53t-157.5 -119q-146 -104 -223 -132t-143 -1q-60 24 -63 114.5t52 206.5q35 74 70.5 119.5t84.5 61.5q51 16 82.5 -17.5t22.5 -78.5q-9 -48 -67 -110.5t-100 -62.5q-33 0 -43 -10.5t-20 -59.5q-9 -47 11 -77q16 -20 29 -21.5t55 10.5
q57 16 221 135q63 46 99 70.5t60 35t33 7t15 -17.5zM197 720q-36 -52 -22 -59q10 -3 35 20q38 36 38 57q0 27 -18 18q-15 -7 -33 -36z" />
    <glyph glyph-name="f" unicode="f" horiz-adv-x="604" 
d="M704 662q28 13 54 0q21 -13 5 -31q-28 -30 -226.5 -145.5t-208.5 -122.5l-113 -76l9 -67q15 -113 -16 -284t-102 -339q-27 -64 -55.5 -110t-52 -68.5t-45 -32t-36.5 -6.5t-25 14q-48 53 -0.5 252t162.5 466q40 93 44 115t-16 36q-28 20 -17.5 43.5t51.5 32.5q29 6 55 44
t97 178q73 144 208.5 379.5t185.5 304.5q22 31 57 33t44 -26q11 -34 -15.5 -119.5t-69.5 -155.5q-53 -89 -82.5 -118.5t-54.5 -20.5q-13 4 -22 0t-28.5 -31t-42.5 -68.5t-70 -130.5q-73 -139 -66 -144q4 -5 109 47q13 7 142 76t141 75zM63 -293q33 86 53 195t20 160
q0 25 -25 -32q-56 -130 -120 -352q-23 -81 -31 -125t6 -33q27 20 82 150q8 19 15 37z" />
    <glyph glyph-name="g" unicode="g" horiz-adv-x="663" 
d="M858 519q38 -7 20 -41q-27 -47 -218 -218q-7 -5 -13 -11l-245 -219l-111 -270q-112 -265 -135 -327q-24 -58 -63.5 -69.5t-70.5 25t-31 103.5q0 96 58.5 206.5t189.5 262.5q64 74 91 123.5t68 162.5q42 120 96.5 320.5t54.5 235.5q0 5 -29 -19.5t-79 -72t-108 -105.5
q-218 -216 -244 -224q-36 -13 -55.5 5t-17.5 59q2 50 29.5 110t73.5 112q80 91 167 84q37 -2 62.5 10.5t79.5 59.5q80 73 128 98q30 16 41 15.5t27 -16.5t14.5 -47.5t-24.5 -147.5q-29 -149 -87 -337q-55 -166 -48 -171q1 -2 26 17.5t66 55t88 78.5q73 65 131 109.5t68 42.5
zM258 654q23 28 15 32q-6 3 -26 -15q-64 -57 -103 -114q-31 -44 -23 -43q11 2 87 78q2 2 50 62zM142 -390q69 166 59 168q-5 0 -30 -36q-43 -61 -72 -127.5t-29 -106.5q-1 -35 6 -34q10 1 66 136z" />
    <glyph glyph-name="h" unicode="h" horiz-adv-x="761" 
d="M846 652q24 15 44 4q26 -13 -6 -50q-7 -7 -16 -15q-191 -170 -276 -184q-56 -10 -98 3t-75 68q-14 23 -44 96t-30 74q-7 7 -36.5 -23t-72.5 -85.5t-86 -120.5q-25 -39 -50 -66.5t-34 -27.5q-23 0 -36 60q-17 85 28 231.5t168 405.5q74 155 210 461q89 200 121 258.5
t55 58.5q34 0 52.5 -51.5t8.5 -124.5q-10 -62 -30 -119t-72.5 -148.5t-93.5 -155.5t-145 -224q-127 -192 -177 -325l-45 -126l103 113q48 52 81.5 80t59 34t41 -11t25.5 -57q16 -65 37.5 -111.5t43 -67.5t39 -29.5t31.5 -6.5q28 5 87 44.5t119.5 86t68.5 51.5z" />
    <glyph glyph-name="i" unicode="i" horiz-adv-x="796" 
d="M870 662q27 3 38 -20t-14 -53q-20 -22 -44 -46.5t-81 -74.5t-114 -89.5t-135 -76.5t-151 -51q-106 -20 -188 32.5t-92 147.5q-10 100 12 209q19 92 47 133t59 21q14 -8 14 -37.5t-13 -37.5q-14 -9 -32 -130q-12 -77 -11.5 -108.5t15.5 -67.5q28 -68 109.5 -75.5t171 28.5
t164.5 94q47 37 105.5 89.5t92 81.5t47.5 31zM261 916q-11 -11 -28 -11t-28.5 11.5t-11.5 28.5t11.5 28.5t28.5 11.5t28.5 -11.5t11.5 -28.5t-12 -29z" />
    <glyph glyph-name="i" unicode="&#xef;" horiz-adv-x="796" 
d="M870 662q27 3 38 -20t-14 -53q-20 -22 -44 -46.5t-81 -74.5t-114 -89.5t-135 -76.5t-151 -51q-106 -20 -188 32.5t-92 147.5q-10 100 12 209q19 92 47 133t59 21q14 -8 14 -37.5t-13 -37.5q-14 -9 -32 -130q-12 -77 -11.5 -108.5t15.5 -67.5q28 -68 109.5 -75.5t171 28.5
t164.5 94q47 37 105.5 89.5t92 81.5t47.5 31zM261 916q-11 -11 -28 -11t-28.5 11.5t-11.5 28.5t11.5 28.5t28.5 11.5t28.5 -11.5t11.5 -28.5t-12 -29z" />
    <glyph glyph-name="i" unicode="&#xee;" horiz-adv-x="796" 
d="M870 662q27 3 38 -20t-14 -53q-20 -22 -44 -46.5t-81 -74.5t-114 -89.5t-135 -76.5t-151 -51q-106 -20 -188 32.5t-92 147.5q-10 100 12 209q19 92 47 133t59 21q14 -8 14 -37.5t-13 -37.5q-14 -9 -32 -130q-12 -77 -11.5 -108.5t15.5 -67.5q28 -68 109.5 -75.5t171 28.5
t164.5 94q47 37 105.5 89.5t92 81.5t47.5 31zM261 916q-11 -11 -28 -11t-28.5 11.5t-11.5 28.5t11.5 28.5t28.5 11.5t28.5 -11.5t11.5 -28.5t-12 -29z" />
    <glyph glyph-name="i" unicode="&#xed;" horiz-adv-x="796" 
d="M870 662q27 3 38 -20t-14 -53q-20 -22 -44 -46.5t-81 -74.5t-114 -89.5t-135 -76.5t-151 -51q-106 -20 -188 32.5t-92 147.5q-10 100 12 209q19 92 47 133t59 21q14 -8 14 -37.5t-13 -37.5q-14 -9 -32 -130q-12 -77 -11.5 -108.5t15.5 -67.5q28 -68 109.5 -75.5t171 28.5
t164.5 94q47 37 105.5 89.5t92 81.5t47.5 31zM261 916q-11 -11 -28 -11t-28.5 11.5t-11.5 28.5t11.5 28.5t28.5 11.5t28.5 -11.5t11.5 -28.5t-12 -29z" />
    <glyph glyph-name="i" unicode="&#xec;" horiz-adv-x="796" 
d="M870 662q27 3 38 -20t-14 -53q-20 -22 -44 -46.5t-81 -74.5t-114 -89.5t-135 -76.5t-151 -51q-106 -20 -188 32.5t-92 147.5q-10 100 12 209q19 92 47 133t59 21q14 -8 14 -37.5t-13 -37.5q-14 -9 -32 -130q-12 -77 -11.5 -108.5t15.5 -67.5q28 -68 109.5 -75.5t171 28.5
t164.5 94q47 37 105.5 89.5t92 81.5t47.5 31zM261 916q-11 -11 -28 -11t-28.5 11.5t-11.5 28.5t11.5 28.5t28.5 11.5t28.5 -11.5t11.5 -28.5t-12 -29z" />
    <glyph glyph-name="j" unicode="j" horiz-adv-x="647" 
d="M689 584q29 0 29 -29q0 -31 -120 -96q-96 -53 -243.5 -158.5t-190.5 -152.5q-33 -37 -90 -176q-100 -251 -180.5 -369.5t-149.5 -118.5q-47 0 -64 32q-8 14 -10.5 38t1.5 45q23 97 106.5 216.5t208.5 266.5q51 62 81.5 113.5t53.5 116.5q13 35 30.5 100t29.5 102
q30 90 57 196q42 166 53 182q11 17 32 18t31 -15q8 -11 -41.5 -216t-82.5 -297q-24 -66 -17 -71q5 -7 123 77q106 76 214 136t139 60zM-49 -113q5 18 1 18q-6 0 -39 -44q-50 -68 -103 -157t-53 -106q0 -33 25 -14q19 14 42 51q37 58 77 137t50 115zM380 1009q-9 -10 -23 -10
t-24 10t-10 24t10 24t24 10t23.5 -10t9.5 -24t-10 -24z" />
    <glyph glyph-name="k" unicode="k" horiz-adv-x="792" 
d="M991 639q7 -12 0.5 -23t-37.5 -29.5t-85 -42.5t-150 -64q-208 -88 -296.5 -113t-168.5 -17l-77 6l-45 -110q-51 -124 -76 -220t-32 -198q-10 -126 -35 -129q-10 -2 -26 14q-37 36 -9.5 206t99.5 344q49 123 78 203q33 90 89 186q74 131 162 300q104 195 248 449
q151 265 202 358q81 148 135 114q36 -22 -13 -76q-19 -21 -111 -180q-341 -603 -341 -615q0 -8 94 79q140 129 199 90q30 -19 23.5 -39t-45.5 -24q-41 -4 -142.5 -101t-206.5 -227.5t-155 -225.5q-20 -37 -29.5 -58.5t-13.5 -37.5t3 -22.5t19.5 -9.5t36.5 -3
q57 0 157.5 33.5t289.5 116.5q147 63 196 75.5t63 -9.5z" />
    <glyph glyph-name="l" unicode="l" horiz-adv-x="450" 
d="M720 1470q-54 -101 -174 -267.5t-187 -232.5q-45 -45 -90 -141t-77 -208t-51.5 -220.5t-16 -190.5t32.5 -106q21 -16 68 -6q33 7 79.5 52.5t156.5 178.5q19 23 40.5 32t35.5 1.5t14 -29.5q0 -23 -105.5 -144t-148.5 -147q-48 -29 -97.5 -28t-86.5 30q-83 66 -69.5 253
t120.5 477q61 165 61 183t16 38q11 11 186 359q136 272 197 364.5t105 92.5q48 0 63.5 -45t-3.5 -123t-69 -173zM464 1245q-7 -23 26 18q69 85 141 208q18 30 28 52q52 108 61 171q3 22 -5 20q-3 0 -7 -4q-15 -15 -124.5 -224t-119.5 -241z" />
    <glyph glyph-name="m" unicode="m" horiz-adv-x="1056" 
d="M1061 562q134 89 162 84q15 -2 15 -27q0 -26 -44 -63t-149 -100q-190 -114 -232 18q-4 14 -12 24.5t-14 10.5q-15 0 -115 -93q-179 -169 -227 -63q-19 41 -22 107t1 112l3 45q-6 0 -110 -131q-106 -132 -137 -155q-33 -23 -75 -22.5t-62 23.5q-42 53 18 309
q30 126 48.5 167.5t45.5 41.5q15 0 21 -5.5t5 -29.5t-9.5 -63t-27.5 -114q-40 -166 -35 -209l5 -51l65 69q77 83 173 212q111 142 149 173q53 41 75 14q24 -28 -10 -100q-2 -3 -4 -7q-27 -51 -43.5 -133t-14.5 -144t23 -62q14 0 113 92q118 111 189 108q52 -3 52 -70
q0 -45 29 -45q37 1 151 77z" />
    <glyph glyph-name="n" unicode="n" horiz-adv-x="747" 
d="M884 642q14 6 27.5 -4t15 -29.5t-16.5 -45.5q-27 -36 -103.5 -99t-103.5 -75q-106 -44 -187 -4q-37 18 -63.5 68t-37.5 90.5t-13 40.5q-17 0 -59 -44t-76 -97q-91 -144 -146 -154q-27 -5 -38 26q-7 17 19 185t52 275q12 45 34 63t42 -1q14 -14 -16 -182
q-31 -170 -31 -177q0 -4 18 18q12 14 28 36q44 60 106.5 103.5t97.5 38.5q22 -3 33 -20t24 -70q34 -136 125 -136q36 0 82 29t81 63.5t66.5 66.5t39.5 35z" />
    <glyph glyph-name="n" unicode="&#xf1;" horiz-adv-x="747" 
d="M884 642q14 6 27.5 -4t15 -29.5t-16.5 -45.5q-27 -36 -103.5 -99t-103.5 -75q-106 -44 -187 -4q-37 18 -63.5 68t-37.5 90.5t-13 40.5q-17 0 -59 -44t-76 -97q-91 -144 -146 -154q-27 -5 -38 26q-7 17 19 185t52 275q12 45 34 63t42 -1q14 -14 -16 -182
q-31 -170 -31 -177q0 -4 18 18q12 14 28 36q44 60 106.5 103.5t97.5 38.5q22 -3 33 -20t24 -70q34 -136 125 -136q36 0 82 29t81 63.5t66.5 66.5t39.5 35z" />
    <glyph glyph-name="o" unicode="o" horiz-adv-x="512" 
d="M679 689q20 5 27.5 -10t2 -35t-18.5 -28q-10 -6 -31 -11t-73.5 -23t-126.5 -50q-109 -47 -146.5 -70.5t-66.5 -64.5q-47 -66 -95.5 -86.5t-92.5 6.5q-28 18 -40 44t-8 51.5t8.5 39.5t9.5 23q10 17 27 33.5t31 22.5q35 14 35 49q1 38 49.5 118t87.5 108q54 39 88.5 42
t59.5 -26q15 -17 20.5 -26.5t8.5 -35.5t-8 -62q-5 -23 -14.5 -48t-15.5 -39t-6 -15q1 -1 64 20t135.5 45t88.5 28zM151 412q20 21 24 28t1 12t-21 14q-19 11 -28.5 8.5t-19.5 -21.5q-9 -18 -13.5 -36t-2 -30t11.5 -12q15 0 48 37zM291 611q47 81 47 116q0 23 -5 26t-25 -9
q-26 -17 -68 -89t-42 -101q0 -35 26 -22q31 15 67 79z" />
    <glyph glyph-name="o" unicode="&#xf8;" horiz-adv-x="512" 
d="M679 689q20 5 27.5 -10t2 -35t-18.5 -28q-10 -6 -31 -11t-73.5 -23t-126.5 -50q-109 -47 -146.5 -70.5t-66.5 -64.5q-47 -66 -95.5 -86.5t-92.5 6.5q-28 18 -40 44t-8 51.5t8.5 39.5t9.5 23q10 17 27 33.5t31 22.5q35 14 35 49q1 38 49.5 118t87.5 108q54 39 88.5 42
t59.5 -26q15 -17 20.5 -26.5t8.5 -35.5t-8 -62q-5 -23 -14.5 -48t-15.5 -39t-6 -15q1 -1 64 20t135.5 45t88.5 28zM151 412q20 21 24 28t1 12t-21 14q-19 11 -28.5 8.5t-19.5 -21.5q-9 -18 -13.5 -36t-2 -30t11.5 -12q15 0 48 37zM291 611q47 81 47 116q0 23 -5 26t-25 -9
q-26 -17 -68 -89t-42 -101q0 -35 26 -22q31 15 67 79z" />
    <glyph glyph-name="o" unicode="&#xf6;" horiz-adv-x="512" 
d="M679 689q20 5 27.5 -10t2 -35t-18.5 -28q-10 -6 -31 -11t-73.5 -23t-126.5 -50q-109 -47 -146.5 -70.5t-66.5 -64.5q-47 -66 -95.5 -86.5t-92.5 6.5q-28 18 -40 44t-8 51.5t8.5 39.5t9.5 23q10 17 27 33.5t31 22.5q35 14 35 49q1 38 49.5 118t87.5 108q54 39 88.5 42
t59.5 -26q15 -17 20.5 -26.5t8.5 -35.5t-8 -62q-5 -23 -14.5 -48t-15.5 -39t-6 -15q1 -1 64 20t135.5 45t88.5 28zM151 412q20 21 24 28t1 12t-21 14q-19 11 -28.5 8.5t-19.5 -21.5q-9 -18 -13.5 -36t-2 -30t11.5 -12q15 0 48 37zM291 611q47 81 47 116q0 23 -5 26t-25 -9
q-26 -17 -68 -89t-42 -101q0 -35 26 -22q31 15 67 79z" />
    <glyph glyph-name="o" unicode="&#xf5;" horiz-adv-x="512" 
d="M679 689q20 5 27.5 -10t2 -35t-18.5 -28q-10 -6 -31 -11t-73.5 -23t-126.5 -50q-109 -47 -146.5 -70.5t-66.5 -64.5q-47 -66 -95.5 -86.5t-92.5 6.5q-28 18 -40 44t-8 51.5t8.5 39.5t9.5 23q10 17 27 33.5t31 22.5q35 14 35 49q1 38 49.5 118t87.5 108q54 39 88.5 42
t59.5 -26q15 -17 20.5 -26.5t8.5 -35.5t-8 -62q-5 -23 -14.5 -48t-15.5 -39t-6 -15q1 -1 64 20t135.5 45t88.5 28zM151 412q20 21 24 28t1 12t-21 14q-19 11 -28.5 8.5t-19.5 -21.5q-9 -18 -13.5 -36t-2 -30t11.5 -12q15 0 48 37zM291 611q47 81 47 116q0 23 -5 26t-25 -9
q-26 -17 -68 -89t-42 -101q0 -35 26 -22q31 15 67 79z" />
    <glyph glyph-name="o" unicode="&#xf4;" horiz-adv-x="512" 
d="M679 689q20 5 27.5 -10t2 -35t-18.5 -28q-10 -6 -31 -11t-73.5 -23t-126.5 -50q-109 -47 -146.5 -70.5t-66.5 -64.5q-47 -66 -95.5 -86.5t-92.5 6.5q-28 18 -40 44t-8 51.5t8.5 39.5t9.5 23q10 17 27 33.5t31 22.5q35 14 35 49q1 38 49.5 118t87.5 108q54 39 88.5 42
t59.5 -26q15 -17 20.5 -26.5t8.5 -35.5t-8 -62q-5 -23 -14.5 -48t-15.5 -39t-6 -15q1 -1 64 20t135.5 45t88.5 28zM151 412q20 21 24 28t1 12t-21 14q-19 11 -28.5 8.5t-19.5 -21.5q-9 -18 -13.5 -36t-2 -30t11.5 -12q15 0 48 37zM291 611q47 81 47 116q0 23 -5 26t-25 -9
q-26 -17 -68 -89t-42 -101q0 -35 26 -22q31 15 67 79z" />
    <glyph glyph-name="o" unicode="&#xf3;" horiz-adv-x="512" 
d="M679 689q20 5 27.5 -10t2 -35t-18.5 -28q-10 -6 -31 -11t-73.5 -23t-126.5 -50q-109 -47 -146.5 -70.5t-66.5 -64.5q-47 -66 -95.5 -86.5t-92.5 6.5q-28 18 -40 44t-8 51.5t8.5 39.5t9.5 23q10 17 27 33.5t31 22.5q35 14 35 49q1 38 49.5 118t87.5 108q54 39 88.5 42
t59.5 -26q15 -17 20.5 -26.5t8.5 -35.5t-8 -62q-5 -23 -14.5 -48t-15.5 -39t-6 -15q1 -1 64 20t135.5 45t88.5 28zM151 412q20 21 24 28t1 12t-21 14q-19 11 -28.5 8.5t-19.5 -21.5q-9 -18 -13.5 -36t-2 -30t11.5 -12q15 0 48 37zM291 611q47 81 47 116q0 23 -5 26t-25 -9
q-26 -17 -68 -89t-42 -101q0 -35 26 -22q31 15 67 79z" />
    <glyph glyph-name="o" unicode="&#xf2;" horiz-adv-x="512" 
d="M679 689q20 5 27.5 -10t2 -35t-18.5 -28q-10 -6 -31 -11t-73.5 -23t-126.5 -50q-109 -47 -146.5 -70.5t-66.5 -64.5q-47 -66 -95.5 -86.5t-92.5 6.5q-28 18 -40 44t-8 51.5t8.5 39.5t9.5 23q10 17 27 33.5t31 22.5q35 14 35 49q1 38 49.5 118t87.5 108q54 39 88.5 42
t59.5 -26q15 -17 20.5 -26.5t8.5 -35.5t-8 -62q-5 -23 -14.5 -48t-15.5 -39t-6 -15q1 -1 64 20t135.5 45t88.5 28zM151 412q20 21 24 28t1 12t-21 14q-19 11 -28.5 8.5t-19.5 -21.5q-9 -18 -13.5 -36t-2 -30t11.5 -12q15 0 48 37zM291 611q47 81 47 116q0 23 -5 26t-25 -9
q-26 -17 -68 -89t-42 -101q0 -35 26 -22q31 15 67 79z" />
    <glyph glyph-name="p" unicode="p" horiz-adv-x="806" 
d="M1019 698q22 -22 -2 -45.5t-97 -51.5q-105 -40 -139 -69t-76 -115q-56 -116 -139 -193q-90 -84 -159 -87q-41 -1 -58.5 33t-6.5 81q10 42 93 129t166 144q69 47 87.5 74t18.5 80q0 116 -68 114q-73 -1 -181 -126q-98 -112 -182 -279q-49 -96 -49 -127q0 -30 -34 -35
q-19 -3 -32.5 -22.5t-29.5 -67.5q-46 -134 -86 -324.5t-24 -232.5q5 -13 -2.5 -28.5t-24 -15t-31.5 28.5q-20 37 -9 160.5t47 259.5q23 85 101 309.5t107 292.5q17 40 48.5 128t51.5 129q41 84 71 84q35 0 34 -30q0 -35 -52 -138q-63 -127 -55 -135q3 -3 29 24t60 68
q62 78 129 123t119 41q47 -4 81 -26.5t48.5 -55.5t20 -74t-4.5 -81q3 1 25 8.5t49.5 17t49.5 16.5q89 31 106 14zM481 245q36 28 87 99t41 80q-6 6 -54 -32t-94.5 -88t-47.5 -73q-1 -39 68 14z" />
    <glyph glyph-name="q" unicode="q" horiz-adv-x="741" 
d="M607 926q74 62 99.5 50.5t15.5 -105.5q-9 -78 -75.5 -384.5t-128.5 -554.5q-51 -202 -104 -282.5t-125 -64.5q-25 6 -35.5 44t-0.5 91q10 56 66.5 164t104.5 164q31 37 49.5 79t35.5 115q92 383 119 541l10 70l-67 -61q-74 -64 -256 -253q-132 -135 -167.5 -163
t-72.5 -24q-66 7 -61.5 74t78.5 179q107 163 196 223t147 8l1 -1q19 -17 31 -14q20 5 106 77zM252 588q156 171 130 191q-4 4 -14 4q-24 0 -112.5 -97.5t-121.5 -162.5q-42 -77 -31 -81q12 0 149 146zM371 -275q40 85 49 147q2 19 -4 18q-12 -7 -39.5 -63.5t-43.5 -109.5
q-11 -35 2 -34q16 2 36 42z" />
    <glyph glyph-name="r" unicode="r" horiz-adv-x="520" 
d="M612 657q49 6 59 2.5t10 -27.5q0 -33 -44 -49.5t-111 -7.5q-51 7 -89 36.5t-76 90.5q-13 21 -22 18.5t-45 -37.5q-21 -20 -59.5 -81.5t-72.5 -128.5q-83 -169 -120 -168q-13 1 -21 21q-7 22 40 220q49 194 39 239q-8 36 12.5 59.5t49.5 13.5q23 -8 23 -90v-81l69 67
q65 63 102 60.5t75 -72.5q33 -59 71.5 -77t109.5 -8z" />
    <glyph glyph-name="s" unicode="s" horiz-adv-x="626" 
d="M741 651q84 -18 -60 -120q-108 -76 -195.5 -163t-87.5 -117q0 -50 -65 -155t-152 -196q-74 -77 -104.5 -99.5t-61.5 -22.5q-49 0 -67 31q-24 47 36 141t219 259q85 88 101.5 113.5t4.5 50.5q-7 16 -36 40.5t-64 43.5q-140 81 -160 143q-17 56 45 169.5t136 162.5
q26 16 40 17.5t33 -8.5q34 -17 28.5 -50.5t-59.5 -130.5q-46 -85 -69 -103.5t-49 8.5q-6 6 -10 8t-6 -1t-3 -9.5t-1 -18.5q0 -34 26 -59.5t93 -59.5q64 -33 103 -79l40 -48l192 164q52 39 97 65t56 24zM106 -70q56 59 112 134.5t56 91.5q0 15 -65 -54q-6 -7 -13 -14
q-114 -126 -153 -196q-14 -26 -2 -21q15 7 65 59z" />
    <glyph glyph-name="t" unicode="t" horiz-adv-x="393" 
d="M698 1272q356 49 583.5 30.5t227.5 -97.5q0 -19 -9.5 -25.5t-31.5 -2t-61 21.5q-35 16 -89 21t-173 4q-158 -1 -370.5 -24.5t-235.5 -42.5q-19 -16 -143 -292t-171 -405q-79 -219 -120.5 -407.5t-34.5 -293.5q4 -43 -1 -55t-28 -16q-20 -3 -29.5 4.5t-15.5 31.5
q-32 128 61.5 465.5t264.5 710.5q55 119 55 155q0 29 27 62q19 22 14 24.5t-64 -5.5q-74 -11 -332.5 -63.5t-368.5 -79.5q-138 -32 -144 6q-1 10 4 23q7 19 212.5 68.5t490.5 102.5l265 48l177 342q106 205 147.5 273.5t60.5 68.5q65 0 15 -195q-26 -98 -63 -173.5
t-111 -177.5l-83 -116z" />
    <glyph glyph-name="u" unicode="u" horiz-adv-x="538" 
d="M611 556q98 106 117 76q6 -10 6 -33t-48.5 -80t-106 -104.5t-80.5 -47.5q-63 0 -82 54t8 153q32 112 -23 27q-13 -20 -30 -50q-107 -192 -169 -225q-30 -17 -40.5 -17.5t-43.5 12.5q-35 14 -45 60.5t0 153.5q23 262 74 337q23 34 46 11q19 -19 -6 -140q-18 -83 -29 -165
t-11 -128.5t10 -51.5q39 0 185 260q66 116 110 168.5t78 52.5q38 0 41 -46t-29 -148q-61 -200 -47 -221q13 -19 93 68q10 11 22 24z" />
    <glyph glyph-name="u" unicode="&#xfc;" horiz-adv-x="538" 
d="M611 556q98 106 117 76q6 -10 6 -33t-48.5 -80t-106 -104.5t-80.5 -47.5q-63 0 -82 54t8 153q32 112 -23 27q-13 -20 -30 -50q-107 -192 -169 -225q-30 -17 -40.5 -17.5t-43.5 12.5q-35 14 -45 60.5t0 153.5q23 262 74 337q23 34 46 11q19 -19 -6 -140q-18 -83 -29 -165
t-11 -128.5t10 -51.5q39 0 185 260q66 116 110 168.5t78 52.5q38 0 41 -46t-29 -148q-61 -200 -47 -221q13 -19 93 68q10 11 22 24z" />
    <glyph glyph-name="u" unicode="&#xfb;" horiz-adv-x="538" 
d="M611 556q98 106 117 76q6 -10 6 -33t-48.5 -80t-106 -104.5t-80.5 -47.5q-63 0 -82 54t8 153q32 112 -23 27q-13 -20 -30 -50q-107 -192 -169 -225q-30 -17 -40.5 -17.5t-43.5 12.5q-35 14 -45 60.5t0 153.5q23 262 74 337q23 34 46 11q19 -19 -6 -140q-18 -83 -29 -165
t-11 -128.5t10 -51.5q39 0 185 260q66 116 110 168.5t78 52.5q38 0 41 -46t-29 -148q-61 -200 -47 -221q13 -19 93 68q10 11 22 24z" />
    <glyph glyph-name="u" unicode="&#xfa;" horiz-adv-x="538" 
d="M611 556q98 106 117 76q6 -10 6 -33t-48.5 -80t-106 -104.5t-80.5 -47.5q-63 0 -82 54t8 153q32 112 -23 27q-13 -20 -30 -50q-107 -192 -169 -225q-30 -17 -40.5 -17.5t-43.5 12.5q-35 14 -45 60.5t0 153.5q23 262 74 337q23 34 46 11q19 -19 -6 -140q-18 -83 -29 -165
t-11 -128.5t10 -51.5q39 0 185 260q66 116 110 168.5t78 52.5q38 0 41 -46t-29 -148q-61 -200 -47 -221q13 -19 93 68q10 11 22 24z" />
    <glyph glyph-name="u" unicode="&#xf9;" horiz-adv-x="538" 
d="M611 556q98 106 117 76q6 -10 6 -33t-48.5 -80t-106 -104.5t-80.5 -47.5q-63 0 -82 54t8 153q32 112 -23 27q-13 -20 -30 -50q-107 -192 -169 -225q-30 -17 -40.5 -17.5t-43.5 12.5q-35 14 -45 60.5t0 153.5q23 262 74 337q23 34 46 11q19 -19 -6 -140q-18 -83 -29 -165
t-11 -128.5t10 -51.5q39 0 185 260q66 116 110 168.5t78 52.5q38 0 41 -46t-29 -148q-61 -200 -47 -221q13 -19 93 68q10 11 22 24z" />
    <glyph glyph-name="v" unicode="v" horiz-adv-x="532" 
d="M615 754q46 17 68.5 6.5t9.5 -42.5q-14 -37 -96.5 -52t-111.5 14q-13 13 -20 10q-16 -6 -89 -99q-19 -25 -77 -100q-85 -113 -119.5 -146.5t-65.5 -36.5q-29 -3 -41 3.5t-20 27.5q-23 69 18 267q28 143 68 146q10 0 19 -9q10 -11 7.5 -42.5t-16.5 -106.5
q-7 -35 -11.5 -59t-7.5 -45.5t-4 -34t1 -21t5.5 -9.5t11.5 3.5t17 14t23.5 27t30 37t37.5 49.5q49 66 189 253l93 124q16 21 22.5 22.5t23.5 -14.5q17 -17 15.5 -33t-24.5 -72q-33 -80 -23 -91q12 -12 67 9z" />
    <glyph glyph-name="w" unicode="w" horiz-adv-x="747" 
d="M832 747q42 13 67.5 16t37.5 -4.5t12 -25.5q0 -23 -24 -35t-112 -36q-66 -17 -91.5 -33.5t-64.5 -67.5q-62 -82 -113.5 -121t-109.5 -52q-79 -18 -136 23q-47 34 -57 34q-12 0 -60 -112q-26 -64 -43.5 -89.5t-36.5 -28.5q-34 -5 -50 26q-33 65 6 305q24 149 61.5 268
t61.5 124q32 7 34 -34q1 -41 -30 -153q-40 -144 -49 -236l-9 -93l71 137q39 75 61.5 104t36.5 26q17 -3 21 -21t1 -73q-6 -88 13 -113q34 -41 122.5 3.5t161.5 148.5q-47 2 -73.5 28t-29.5 62.5t5.5 74t25.5 66.5q32 54 77.5 56.5t79 -42.5t33.5 -116v-1q0 -33 12.5 -35
t87.5 20zM610 738q23 -14 34 2t2 51q-10 40 -23.5 40t-23.5 -39q-9 -41 11 -54z" />
    <glyph glyph-name="x" unicode="x" horiz-adv-x="724" 
d="M832 634q28 35 55 23q23 -11 14 -45q-8 -26 -34 -52q-259 -259 -375 -288q-38 -7 -75.5 -7.5t-74.5 20t-57 60.5q-23 47 -45 35q-20 -11 -72 -98q-4 -6 -12 -20l-13 -21q-35 -58 -46.5 -90t-6.5 -55q9 -36 -12.5 -48.5t-49.5 11.5q-33 28 -12 95.5t99 188.5l96 150
l-5 173q-2 65 -2.5 94t2 51t7 27t14.5 7q27 5 42.5 -36.5t16.5 -120.5v-80l31 39q95 118 147 167.5t78 49.5q22 0 30 -8t8 -29q0 -27 -25 -57t-46 -30q-15 0 -113 -131l-97 -130q2 -5 5.5 -12.5t16 -27.5t26.5 -36t36 -31t45 -19q37 -7 131 55.5t173 130.5t100 95z" />
    <glyph glyph-name="y" unicode="y" horiz-adv-x="694" 
d="M792 420q9 -24 -152 -189q-69 -71 -95 -98t-54 -68t-40 -69.5t-40 -100.5q-76 -195 -148 -342t-99 -161q-30 -15 -37 -15t-30 18q-66 53 -4 228.5t211 357.5q39 47 78 106t55 94q39 86 98 266.5t70 244.5l10 67l-73 -52q-80 -59 -162 -132q-66 -61 -113.5 -97
t-86.5 -53.5t-68 -13.5t-55 27q-51 47 -24 190q12 66 34.5 104.5t50.5 38.5q20 0 24 -8t-3 -35q-1 -3 -8 -29.5t-13.5 -53.5t-12 -58.5t-4 -55t11.5 -30.5q40 -25 157 83q114 103 234.5 191.5t144.5 85.5q47 -7 37.5 -126.5t-73.5 -312.5q-12 -34 -21 -65.5t-12.5 -49
t-0.5 -17.5t15.5 10t32.5 28.5t39 38.5q31 31 51.5 48.5t35.5 23.5t24 1.5t15 -20.5zM238 -316q63 142 63 154q0 4 -14 -14l-26 -37q-52 -76 -97 -199q-28 -76 -13 -71q4 1 9 7q14 14 78 160z" />
    <glyph glyph-name="y" unicode="&#xff;" horiz-adv-x="694" 
d="M792 420q9 -24 -152 -189q-69 -71 -95 -98t-54 -68t-40 -69.5t-40 -100.5q-76 -195 -148 -342t-99 -161q-30 -15 -37 -15t-30 18q-66 53 -4 228.5t211 357.5q39 47 78 106t55 94q39 86 98 266.5t70 244.5l10 67l-73 -52q-80 -59 -162 -132q-66 -61 -113.5 -97
t-86.5 -53.5t-68 -13.5t-55 27q-51 47 -24 190q12 66 34.5 104.5t50.5 38.5q20 0 24 -8t-3 -35q-1 -3 -8 -29.5t-13.5 -53.5t-12 -58.5t-4 -55t11.5 -30.5q40 -25 157 83q114 103 234.5 191.5t144.5 85.5q47 -7 37.5 -126.5t-73.5 -312.5q-12 -34 -21 -65.5t-12.5 -49
t-0.5 -17.5t15.5 10t32.5 28.5t39 38.5q31 31 51.5 48.5t35.5 23.5t24 1.5t15 -20.5zM238 -316q63 142 63 154q0 4 -14 -14l-26 -37q-52 -76 -97 -199q-28 -76 -13 -71q4 1 9 7q14 14 78 160z" />
    <glyph glyph-name="y" unicode="&#xfd;" horiz-adv-x="694" 
d="M792 420q9 -24 -152 -189q-69 -71 -95 -98t-54 -68t-40 -69.5t-40 -100.5q-76 -195 -148 -342t-99 -161q-30 -15 -37 -15t-30 18q-66 53 -4 228.5t211 357.5q39 47 78 106t55 94q39 86 98 266.5t70 244.5l10 67l-73 -52q-80 -59 -162 -132q-66 -61 -113.5 -97
t-86.5 -53.5t-68 -13.5t-55 27q-51 47 -24 190q12 66 34.5 104.5t50.5 38.5q20 0 24 -8t-3 -35q-1 -3 -8 -29.5t-13.5 -53.5t-12 -58.5t-4 -55t11.5 -30.5q40 -25 157 83q114 103 234.5 191.5t144.5 85.5q47 -7 37.5 -126.5t-73.5 -312.5q-12 -34 -21 -65.5t-12.5 -49
t-0.5 -17.5t15.5 10t32.5 28.5t39 38.5q31 31 51.5 48.5t35.5 23.5t24 1.5t15 -20.5zM238 -316q63 142 63 154q0 4 -14 -14l-26 -37q-52 -76 -97 -199q-28 -76 -13 -71q4 1 9 7q14 14 78 160z" />
    <glyph glyph-name="z" unicode="z" horiz-adv-x="593" 
d="M753 521q19 6 33.5 -21.5t0.5 -40.5q-47 -45 -170 -114q-71 -40 -92 -61t-33 -63q-32 -116 -120.5 -259.5t-198.5 -259.5t-199 -157q-58 -27 -76.5 -28t-51.5 22q-37 25 -32.5 73t51.5 126q74 123 254.5 314.5t281.5 254.5q17 10 12 54q-3 30 -13.5 38t-48.5 12
q-57 5 -106 -20q-77 -40 -88 -4q-12 37 56 126q84 110 121 204q21 54 3 54q-20 0 -99.5 -80t-116.5 -139q-47 -72 -82 -77q-22 -3 -25 28v8q0 43 68.5 128.5t154 154.5t127.5 69q36 0 52.5 -34.5t6.5 -86.5q-7 -39 -43 -113t-59 -98q-20 -21 -10.5 -30.5t51.5 -9.5
q40 0 85.5 -31.5t45.5 -59.5q0 -23 32 -11q27 11 91 48q18 11 49.5 32t54 34.5t33.5 17.5zM386 159l14 40l-43 -31q-91 -66 -258.5 -257.5t-193.5 -260.5q-10 -27 -7.5 -34.5t19.5 -7.5q11 0 39 16t55 38q114 91 221 232.5t154 264.5z" />
    <glyph glyph-name="braceleft" unicode="{" horiz-adv-x="874" 
d="M699 1776q59 -17 114.5 -71t55.5 -94q0 -49 -37 -34q-27 11 -66 56q-105 123 -185 32q-75 -85 -107 -336q-22 -174 -56 -279q-36 -105 -97.5 -194.5t-123.5 -125.5l-68 -42l-17 -135q-18 -135 -18 -304v-168l58 -58q32 -32 63.5 -49t77.5 -27q86 -19 136 -16t131 30
q72 24 97.5 22t25.5 -32q0 -29 -71.5 -55.5t-160.5 -33.5t-167 6q-222 46 -268 253q-12 60 -8.5 129.5t27.5 273.5q11 92 9 118t-21 39q-26 19 -17 45t41 26q80 0 177 108q72 79 109 185t63 306q21 159 71.5 274t113.5 145q35 17 56.5 18t61.5 -12z" />
    <glyph glyph-name="braceright" unicode="}" horiz-adv-x="600" 
d="M499 718q13 -46 15 -240q2 -126 -3 -180t-25 -104q-51 -136 -164.5 -239.5t-222.5 -113.5q-71 -7 -83 5q-14 14 -10.5 57t20.5 57q20 16 37.5 8.5t17.5 -31.5q0 -36 57 -13q72 29 150 112q84 91 117 173t33 202q0 126 -10 190q-7 42 -17.5 50t-57.5 8q-66 0 -93 31
q-19 21 -21 39.5t10 71.5q17 77 97 260q169 384 169 488q0 59 -21 85t-53 7q-25 -16 -45 -9t-20 32q0 32 29 50t69.5 13.5t69.5 -31.5q48 -45 50 -117t-40.5 -205.5t-150.5 -389.5q-72 -176 -80 -208l-10 -44l85 11q61 8 76 4t25 -29z" />
    <glyph glyph-name="asciitilde" unicode="~" horiz-adv-x="620" 
d="M591 531q43 -8 14 -49q-30 -45 -101 -77q-38 -17 -72 -21q-46 -6 -65.5 0.5t-49.5 36.5q-20 20 -39.5 52t-26.5 59q-7 26 -18.5 45.5t-19.5 19.5q-16 0 -55 -41t-69 -87q-25 -39 -57 -42q-27 0 -28 28q0 26 48 99.5t81 96.5t82 21.5t72 -25.5q26 -32 43 -89
q18 -62 35 -81q19 -23 57.5 -18t85.5 37q24 16 48.5 26.5t34.5 8.5z" />
    <glyph glyph-name="nonbreakingspace" unicode="&#xa0;" horiz-adv-x="593" 
 />
    <glyph glyph-name="sterling" unicode="&#xa3;" horiz-adv-x="1929" 
d="M1752 2284q80 -24 127 -77t47 -119q0 -60 -47.5 -150.5t-132.5 -193.5q-66 -81 -102.5 -102t-74.5 -1q-67 35 16 63q35 13 117 112.5t122 178.5q44 86 0.5 148.5t-159.5 78.5q-103 14 -183.5 -38t-170.5 -190q-53 -81 -138 -254t-143.5 -316t-45.5 -149q14 -4 144 -10
q61 -2 84.5 -5t32.5 -10t12 -24q4 -26 -17.5 -30.5t-148.5 -4.5h-169l-27 -73q-33 -88 -170 -355.5t-233 -430.5q-66 -113 -87.5 -159.5t-9.5 -53.5q39 -25 131.5 -34.5t306.5 -9.5q194 0 280.5 6t176.5 26q196 43 216 43q16 -1 16 -12q0 -2 -2 -19q-5 -33 -58.5 -53
t-209.5 -46q-154 -26 -477 -21t-390 34l-61 27l-112 -117q-81 -83 -126 -107.5t-72 1.5q-32 32 44 170q99 177 202 177q37 0 56 19t73 109q81 134 194.5 349t181.5 360l75 163l-119 10q-129 12 -183 29.5t-54 47.5q0 22 13 25t76 -7q98 -12 195 -12h106l113 248
q152 335 227.5 465t166.5 212q87 77 172.5 96t198.5 -14zM199 45q40 41 22 39q-1 0 -3 -1q-21 -8 -57 -55q-23 -30 -14 -30q7 0 52 47z" />
    <glyph glyph-name="yen" unicode="&#xa5;" horiz-adv-x="1357" 
d="M1244 2246q0 20 18.5 27.5t41 0t33.5 -26.5q28 -54 7.5 -188t-73.5 -240q-34 -68 -176 -302t-187 -297q-51 -71 -51 -81t69 -10q72 0 126 -24t75 -67q23 -44 23.5 -90.5t-21.5 -55.5q-20 -8 -37.5 10t-17.5 48q-1 115 -198 94q-69 -7 -96.5 -20t-77.5 -60
q-30 -28 -71.5 -58.5t-69.5 -44.5q-57 -30 -76 -59q-9 -13 4 -13q7 1 20 6q34 12 169 19q111 6 173 -12t90 -65q20 -33 -6 -43q-25 -9 -61 14q-39 26 -177 26.5t-189 -24.5q-22 -11 -35 -30t-30 -66.5t-49 -158.5q-69 -245 -77 -341q-6 -64 -14 -87.5t-24 -26.5
q-27 -5 -41 31q-14 38 1 128q14 93 104 401q9 27 14 52.5t6 37.5t-2 14q-17 0 -104.5 -35.5t-149.5 -66.5q-40 -20 -62 -26t-31.5 2t-9.5 31q0 26 55 57.5t193 85.5q83 32 116.5 51.5t36.5 36.5q2 17 -11 27t-53 22q-45 13 -72 10.5t-87 -23.5q-118 -42 -137 -28
q-10 7 -7 28q3 19 26 34.5t80 36.5l100 36l2 183q1 352 139 802q32 107 58 150.5t58 43.5q21 0 29 -30t-0.5 -68t-30.5 -59q-26 -26 -71 -185t-74 -326q-21 -127 -31 -283.5t3 -176.5q7 -10 49 -1.5t145 41.5q71 23 132.5 47t71.5 32q50 42 226 320t252 435q49 102 68 211.5
t-8 126.5q-18 9 -18 40zM540 934q30 24 7 24q-22 0 -70 -22q-35 -16 -36 -18q-1 -3 9 -3q5 -1 20 -1q39 -2 70 20z" />
    <glyph glyph-name="softhyphen" unicode="&#xad;" 
 />
    <glyph glyph-name="Euro" unicode="&#x20ac;" horiz-adv-x="1712" 
d="M1241 374q55 64 82 51q13 -7 13 -33q0 -34 -75 -107.5t-180 -145.5t-185 -102q-79 -30 -182 -35.5t-169 15.5q-73 24 -137.5 81t-88.5 120q-30 80 -19 222t57 278q49 142 49 152q0 12 -195 3q-125 -6 -161 -3t-42 19q-7 18 -1 27.5t44.5 18t97.5 14t180 14.5l133 11
l57 117q57 119 51 123q-7 7 -196 -19t-231 -40q-41 -14 -60.5 -2t-7.5 44q11 28 124.5 53.5t290.5 39.5q91 7 116.5 15t43.5 36q132 215 253.5 377t261.5 311q109 116 173 150.5t155 27.5q76 -4 121 -35t73 -96q28 -66 19 -220.5t-41 -167.5t-40 39q-6 41 0 142
q6 103 2 134.5t-30 68.5q-26 36 -45 45.5t-72 12.5q-52 4 -76.5 -5.5t-78.5 -50.5q-91 -73 -228.5 -239t-269.5 -364q-96 -143 -96 -156q0 -6 49 -13t118 -11q299 -19 352 -91q16 -22 16 -32.5t-16 -24.5q-14 -14 -22.5 -13.5t-27.5 16.5q-57 51 -347 68l-181 9l-62 -124
l-64 -125l276 -8q231 -6 329.5 -24.5t98.5 -55.5q0 -27 -31 -28.5t-167 18.5q-132 18 -329 18q-142 0 -161 -3q-45 -6 -66 -40q-13 -20 -51 -129q-4 -12 -8 -22q-51 -143 -57 -279q-7 -128 17.5 -185.5t108.5 -109.5q47 -30 80 -38t105 -8q68 1 108.5 10t102.5 38
q86 40 185.5 113t153.5 133z" />
    </font>
</defs>
</svg>
